<?xml version="1.0" encoding="utf-8"?>
<!-- Generator: Adobe Illustrator 26.0.3, SVG Export Plug-In . SVG Version: 6.00 Build 0)  -->
<svg version="1.1" id="NSW_logo" xmlns="http://www.w3.org/2000/svg" xmlns:xlink="http://www.w3.org/1999/xlink" x="0px" y="0px"
	 viewBox="0 0 100 100" style="enable-background:new 0 0 100 100;" xml:space="preserve">
<style type="text/css">
	.st0{fill-rule:evenodd;clip-rule:evenodd;fill:#E60012;}
	.st1{fill-rule:evenodd;clip-rule:evenodd;fill:#FFFFFF;}
</style>
<path id="BG" class="st0" d="M100,100H0V0h100V100z"/>
<path id="NSW" class="st1" d="M54,59.3h6.9c6.3,0,11.5-5.1,11.5-11.5c0,0,0,0,0,0V26c0-6.3-5.2-11.5-11.5-11.5H54
	c-0.2,0-0.3,0.1-0.3,0.3V59C53.7,59.2,53.9,59.3,54,59.3z M62.6,34.6c2.5,0,4.5,2,4.5,4.5c0,2.5-2,4.5-4.5,4.5c-2.5,0-4.5-2-4.5-4.5
	C58,36.6,60.1,34.6,62.6,34.6C62.6,34.6,62.6,34.6,62.6,34.6L62.6,34.6z M48.9,14.5h-9.8c-6.3,0-11.5,5.1-11.5,11.5c0,0,0,0,0,0
	v21.8c0,6.3,5.1,11.5,11.5,11.5h9.8c0.2,0,0.3-0.1,0.3-0.3V14.8C49.2,14.6,49.1,14.5,48.9,14.5z M45.6,55.7h-6.5
	c-4.4,0-7.9-3.5-7.9-7.9c0,0,0,0,0,0V26c0-4.4,3.5-7.9,7.9-7.9c0,0,0,0,0,0h6.5V55.7z M34.6,27.9c0,2.3,1.9,4.2,4.2,4.2
	s4.2-1.9,4.2-4.2s-1.9-4.2-4.2-4.2c0,0,0,0,0,0C36.5,23.7,34.6,25.6,34.6,27.9C34.6,27.9,34.6,27.9,34.6,27.9z M18.1,68l2.8,3.7H22
	v-5.6h-1.1v3.7l-2.8-3.7H17v5.6h1.1V68z M45.4,66.1h-4.7v1.2h1.8v4.4h1.2v-4.4h1.7L45.4,66.1L45.4,66.1z M45.1,85.1h2.4V74.6h-2.4
	V85.1z M32.8,68l2.8,3.7h1.1v-5.6h-1.1v3.7l-2.8-3.7h-1.1v5.6h1.1V68z M38.1,82.2l-2.2-7.7H34l-2.2,7.6l-2-7.6h-2.3l3,10.6H33l2-7
	l2,7h2.5l3-10.6h-2.3L38.1,82.2z M21.4,78.7c-1.5-0.2-2.5-0.5-2.5-1.2c0-0.8,1.1-1.1,2.6-1.1c1.1,0,2.2,0.3,3.2,0.7l0.7-1.8
	c-1.3-0.5-2.7-0.8-4.1-0.8c-2.3,0-4.7,1.1-4.7,3.2c0,1.7,1.2,2.5,4.2,3c2.1,0.4,3.3,0.6,3.3,1.5c0,0.5-0.4,1.4-2.8,1.4
	c-1.3,0-2.6-0.3-3.8-1l-1,1.8c1.4,0.7,3,1.1,4.6,1.1c3.4,0,5.1-1.2,5.1-3.4C26.3,80.8,25.8,79.5,21.4,78.7z M27.5,66.1h-1.2v5.6h1.2
	L27.5,66.1L27.5,66.1z M63.6,71.7v-5.6h-1.1v3.7l-2.8-3.7h-1.1v5.6h1.1V68l2.8,3.7L63.6,71.7L63.6,71.7z M53.9,70.7h-3.2v-1.3h3v-1
	h-3v-1.2h3.2v-1h-4.4v5.6h4.4V70.7z M83.7,83.9h0.5v1.3h0.3v-1.3H85v-0.3h-1.3V83.9z M80.1,65.9c-1.6,0-3,1.3-3,3c0,1.6,1.3,3,3,3
	s3-1.3,3-3c0,0,0,0,0,0C83.1,67.3,81.8,65.9,80.1,65.9L80.1,65.9L80.1,65.9z M80.1,70.7c-1,0-1.7-0.8-1.7-1.7c0-1,0.8-1.7,1.7-1.7
	c1,0,1.7,0.8,1.7,1.7c0,0,0,0,0,0C81.8,69.9,81.1,70.7,80.1,70.7C80.1,70.7,80.1,70.7,80.1,70.7L80.1,70.7z M86.6,83.6l-0.4,1.1
	l-0.4-1.1h-0.4v1.6h0.3v-1.2l0.4,1.2l0,0h0.3v0l0.4-1.2v1.2H87v-1.6L86.6,83.6L86.6,83.6z M80.5,78.7h-4.9v-4.2h-2.2v10.6h2.2v-4.2
	h4.9v4.2h2.2V74.6h-2.2L80.5,78.7L80.5,78.7z M50,76.8h3.4v8.3h2.3v-8.3H59v-2.2h-9L50,76.8L50,76.8z M66.3,76.6
	c1.2,0,2.3,0.6,2.9,1.6l1.7-1.5c-1.7-2.6-5.2-3.3-7.8-1.5c-2.6,1.7-3.3,5.2-1.5,7.8s5.2,3.3,7.8,1.5c0.6-0.4,1.1-0.9,1.5-1.5
	l-1.7-1.5c-0.6,1-1.7,1.6-2.9,1.6c-1.8,0-3.3-1.4-3.3-3.2c0-1.8,1.4-3.3,3.2-3.3C66.3,76.6,66.3,76.6,66.3,76.6L66.3,76.6z
	 M70.6,66.1h-2.3v5.6h2.3c1.5,0.1,2.9-1.1,3-2.6c0.1-1.5-1.1-2.9-2.6-3C70.8,66.1,70.7,66.1,70.6,66.1L70.6,66.1z M70.7,70.5h-1.2
	v-3.2h1.2c0.9,0,1.6,0.7,1.7,1.6C72.4,69.8,71.7,70.5,70.7,70.5C70.7,70.5,70.7,70.5,70.7,70.5L70.7,70.5z"/>
</svg>
