<svg id="Layer_1" data-name="Layer 1" xmlns="http://www.w3.org/2000/svg" xmlns:xlink="http://www.w3.org/1999/xlink" viewBox="0 0 450.8 154.7"><defs><style>.cls-1,.cls-16{fill:none;}.cls-2{fill:#dafffc;stroke:#000;stroke-width:0.75px;}.cls-10,.cls-11,.cls-12,.cls-13,.cls-16,.cls-18,.cls-19,.cls-2,.cls-20,.cls-23,.cls-5,.cls-6,.cls-7,.cls-8,.cls-9{stroke-miterlimit:10;}.cls-3{opacity:0.28;}.cls-4{clip-path:url(#clip-path);}.cls-18,.cls-5{fill:#ffe07f;}.cls-5,.cls-6{stroke:#2f3332;}.cls-6{fill:#ffa97f;}.cls-21,.cls-7{fill:#fff;}.cls-10,.cls-11,.cls-12,.cls-13,.cls-18,.cls-19,.cls-20,.cls-23,.cls-7,.cls-8,.cls-9{stroke:#372f29;}.cls-8{fill:#fbe477;}.cls-9{fill:#99ee73;}.cls-10{fill:#ffa0b1;}.cls-11{fill:#f8e175;}.cls-12{fill:#ff95a5;}.cls-13{fill:#9af074;}.cls-14{fill:#da8a96;}.cls-15{fill:#96e1ff;}.cls-16{stroke:#2a2224;}.cls-17{fill:#2a2224;}.cls-19{fill:#ffe17f;}.cls-20{fill:#ff7062;}.cls-22{fill:#372f29;}.cls-23{fill:#f3e8dc;}</style><clipPath id="clip-path" transform="translate(-4.6 0.1)"><path class="cls-1" d="M217.7,131.9c3,4.6,3.3,11.9-9.2,22.2,0,0,19.7-1.6,43.8-20a43.7,43.7,0,0,1,29.6-8.5c32.5,2.5,102.7,3.9,153-24.8,29.4-16.7,26.5-41.2-7.7-58.6-29.4-15-82.6-30.1-178.7-35.4,0,0-59.1-3.5-119,3.2C67.9,17,21.2,38,8.2,65.6s5.6,64.2,196.9,60.4C210.1,125.9,215.1,128.1,217.7,131.9Z"/></clipPath></defs><path class="cls-2" d="M217.7,131.9c3,4.6,3.3,11.9-9.2,22.2,0,0,19.7-1.6,43.8-20a43.7,43.7,0,0,1,29.6-8.5c32.5,2.5,102.7,3.9,153-24.8,29.4-16.7,26.5-41.2-7.7-58.6-29.4-15-82.6-30.1-178.7-35.4,0,0-59.1-3.5-119,3.2C67.9,17,21.2,38,8.2,65.6s5.6,64.2,196.9,60.4C210.1,125.9,215.1,128.1,217.7,131.9Z" transform="translate(-4.6 0.1)"/><g class="cls-3"><g class="cls-4"><path class="cls-5" d="M442.7,65.1a12.3,12.3,0,0,0-22.2,10.6,12.8,12.8,0,0,0,1.5,2.5c-.7.8-4.6,4.7-13.7,4.7a4.5,4.5,0,0,0-4,2.7c-1,2.4-.7,6.5,6.1,12.3a13.9,13.9,0,0,0,9.7,3.2c8.2-.5,21.8-3.6,17.4-19.9A12.3,12.3,0,0,0,442.7,65.1Z" transform="translate(-4.6 0.1)"/><path class="cls-6" d="M435.9,74l6.6-2.6a4.8,4.8,0,0,1,3.7-.3c1,.5,3.4,2.9,0,4.5A9,9,0,0,1,435.9,74Z" transform="translate(-4.6 0.1)"/><circle cx="428" cy="68.9" r="2.1"/><path d="M423,94.2a2.3,2.3,0,0,1-2.1.2c-1-.6-.4-3.1-.3-3.6-1.7-1.5-3-2.1-2.6-3.1s3.9-1.9,4.1-1.9.2,0,.2.2l-.2.2s-3.1.2-3.7,1.6,1,1.3,2.5,2.8.1.1.1.2-.8,2.7.1,3.2,1.8.2,4.4-2.1a.2.2,0,0,1,.3.3A15.1,15.1,0,0,1,423,94.2Z" transform="translate(-4.6 0.1)"/><rect class="cls-7" x="302.3" y="110.6" width="2" height="23.08" rx="0.8" transform="translate(4.9 265.6) rotate(-47.9)"/><path class="cls-8" d="M293.2,94.7a14.9,14.9,0,0,0-4.7-.3l.7,7a7.7,7.7,0,0,1,2.6.1,7.3,7.3,0,0,1,4,2.3,8.6,8.6,0,0,1,1.3,2l6.4-2.8A14.4,14.4,0,0,0,293.2,94.7Z" transform="translate(-4.6 0.1)"/><path class="cls-9" d="M301.1,118.6l-4.7-5.3a7.5,7.5,0,0,1-6.8,3.2l-1.4,6.9A14.9,14.9,0,0,0,301.1,118.6Z" transform="translate(-4.6 0.1)"/><path class="cls-10" d="M275.9,105.9a14.4,14.4,0,0,0,2.1,11l5.7-4a7.7,7.7,0,0,1-1-5.6c.1,0,.1-.1.1-.2l-6.8-1.5C276,105.7,275.9,105.8,275.9,105.9Z" transform="translate(-4.6 0.1)"/><path class="cls-11" d="M287.1,123.2l1.1.2,1.4-6.9h-1a8.4,8.4,0,0,1-3.4-1.7,6.5,6.5,0,0,1-1.5-1.8l-5.7,4A14.3,14.3,0,0,0,287.1,123.2Z" transform="translate(-4.6 0.1)"/><path class="cls-12" d="M303.5,103l-6.4,2.8a7.5,7.5,0,0,1,.5,4.7,6.8,6.8,0,0,1-.7,2,5.6,5.6,0,0,1-.5.8l4.7,5.3a14.2,14.2,0,0,0,3.3-6.6A14.4,14.4,0,0,0,303.5,103Z" transform="translate(-4.6 0.1)"/><path class="cls-13" d="M283.8,104.8a7.9,7.9,0,0,1,5.4-3.4l-.7-7A14.7,14.7,0,0,0,276,105.6l6.8,1.5A6.7,6.7,0,0,1,283.8,104.8Z" transform="translate(-4.6 0.1)"/><circle class="cls-14" cx="285.6" cy="109" r="3.2"/><path class="cls-7" d="M290.8,105.8a3.5,3.5,0,0,1,1.9,1.2l3.1-3.2a7.3,7.3,0,0,0-4-2.3,7.5,7.5,0,0,0-8,3.3l3.6,2.6A3.2,3.2,0,0,1,290.8,105.8Z" transform="translate(-4.6 0.1)"/><path class="cls-7" d="M282.7,107.3a7.7,7.7,0,0,0,2.5,7.4l3-3.3a3,3,0,0,1-1.1-3.1l.3-.9-3.6-2.6A8,8,0,0,0,282.7,107.3Z" transform="translate(-4.6 0.1)"/><path class="cls-7" d="M288.6,116.4a7.7,7.7,0,0,0,8.3-3.9l-3.9-2.2a3.2,3.2,0,0,1-4.8,1.1l-3,3.3A8.4,8.4,0,0,0,288.6,116.4Z" transform="translate(-4.6 0.1)"/><path class="cls-7" d="M292.7,107a3.3,3.3,0,0,1,.6,2.6l-.3.7,3.9,2.2a6.8,6.8,0,0,0,.7-2,7.3,7.3,0,0,0-1.8-6.7Z" transform="translate(-4.6 0.1)"/><path class="cls-15" d="M173.9,1l30.2,13.7.6.5,5.3,7.9a1.5,1.5,0,0,1-.9,2.3l-10.2,2a1.5,1.5,0,0,1-.9-.2L167.5,13.5a4.7,4.7,0,0,1-2.8-4,11.7,11.7,0,0,1,.6-4.7A6.3,6.3,0,0,1,173.9,1Z" transform="translate(-4.6 0.1)"/><path class="cls-16" d="M173.9,1l30.2,13.7.6.5,5.3,7.9a1.5,1.5,0,0,1-.9,2.3l-10.2,2a1.5,1.5,0,0,1-.9-.2L167.5,13.5a4.7,4.7,0,0,1-2.8-4,11.7,11.7,0,0,1,.6-4.7A6.3,6.3,0,0,1,173.9,1Z" transform="translate(-4.6 0.1)"/><line class="cls-16" x1="199.8" y1="15" x2="193.9" y2="27.5"/><line class="cls-16" x1="196.5" y1="13.6" x2="190.5" y2="26.2"/><rect class="cls-17" x="182.5" y="14" width="13.9" height="4" transform="translate(88.9 180.2) rotate(-64.5)"/><rect class="cls-17" x="164.7" y="5.6" width="13.9" height="4" transform="translate(86.3 159.3) rotate(-64.5)"/><path class="cls-18" d="M52.9,107.3h0v.2l11.8,12.2h.1l-1.1-15.5A65.1,65.1,0,0,1,52.9,107.3Z" transform="translate(-4.6 0.1)"/><path class="cls-19" d="M64,104.1l10.4,11.7L74,99.1A54.9,54.9,0,0,1,64,104.1Z" transform="translate(-4.6 0.1)"/><path class="cls-19" d="M85.2,109.3h0L79.1,95.6h0q-2.5,2-5.1,3.6l11.2,10.1Z" transform="translate(-4.6 0.1)"/><path class="cls-20" d="M74,99.2h-.2l.5,16.5v.2a67,67,0,0,0,10.8-6.7Z" transform="translate(-4.6 0.1)"/><path class="cls-20" d="M64,104.1h-.2l1.1,15.5a78.9,78.9,0,0,0,9.6-3.6v-.3Z" transform="translate(-4.6 0.1)"/><path class="cls-21" d="M74.3,115.8v.3h.1Z" transform="translate(-4.6 0.1)"/><path class="cls-20" d="M53,107.5l6.1,13.6h0a52.7,52.7,0,0,0,5.7-1.4Z" transform="translate(-4.6 0.1)"/><path class="cls-22" d="M64.9,119.8Z" transform="translate(-4.6 0.1)"/><path class="cls-22" d="M64.6,119.5l-5.4,1.3L53.5,108l-.8-.8h0l6.3,14h.1a54.5,54.5,0,0,0,5.8-1.4h0Z" transform="translate(-4.6 0.1)"/><path class="cls-22" d="M52.7,107.2l.8.8-.2-.5a65.9,65.9,0,0,0,10.5-3v-.4a57.7,57.7,0,0,1-10.8,3Z" transform="translate(-4.6 0.1)"/><path class="cls-22" d="M64.6,119.5l.3.3v-.4Z" transform="translate(-4.6 0.1)"/><path class="cls-22" d="M63.7,104.1v.4h.3l-.3-.3Z" transform="translate(-4.6 0.1)"/><path class="cls-22" d="M74.3,115.8h0v.5l.3-.2Z" transform="translate(-4.6 0.1)"/><path class="cls-22" d="M64.8,119.4v.4h0a58.9,58.9,0,0,0,8-2.9l1.4-.6v-.5A54.6,54.6,0,0,1,64.8,119.4Z" transform="translate(-4.6 0.1)"/><path class="cls-22" d="M63.8,104.1l.3.3a63,63,0,0,0,9.7-4.9v-.4A71.8,71.8,0,0,1,63.8,104.1Z" transform="translate(-4.6 0.1)"/><path class="cls-22" d="M84.9,109v.2a59.3,59.3,0,0,1-10.7,6.6l.3.3a56.5,56.5,0,0,0,10.7-6.7h0Z" transform="translate(-4.6 0.1)"/><path class="cls-22" d="M73.8,99.1v.4l.3-.2-.3-.3Z" transform="translate(-4.6 0.1)"/><path class="cls-22" d="M85.5,109.4,79.2,95.3l-.2.2A59.1,59.1,0,0,1,73.8,99l.3.3A52.5,52.5,0,0,0,79,96l5.9,13,.4.4Z" transform="translate(-4.6 0.1)"/><path class="cls-23" d="M81.6,96.5h0a66.2,66.2,0,0,1-29.7,13.3h0l-2.4-5.6h0A67.3,67.3,0,0,0,79.1,91h0Z" transform="translate(-4.6 0.1)"/><ellipse class="cls-7" cx="64.2" cy="97.4" rx="16.2" ry="2.6" transform="translate(-38.8 34.9) rotate(-24.2)"/><path class="cls-23" d="M75.8,79.3a1.1,1.1,0,0,0-1.5,0l-8.6,8.2h0a1,1,0,0,0-.9.1,1.6,1.6,0,1,0,2.3,1.3h0l8.6-8.1A1.1,1.1,0,0,0,75.8,79.3Z" transform="translate(-4.6 0.1)"/><path class="cls-23" d="M46.2,99.7a1.2,1.2,0,0,1,.9-1.1l11.9-1h0a1.1,1.1,0,0,1,.7-.6,1.6,1.6,0,0,1,2.1.8,1.6,1.6,0,0,1-2.6,1.8h-.1l-11.8,1A.9.9,0,0,1,46.2,99.7Z" transform="translate(-4.6 0.1)"/></g></g></svg>