<svg id="Layer_1" data-name="Layer 1" xmlns="http://www.w3.org/2000/svg" viewBox="0 0 160 185.7"><defs><style>.cls-1{fill:#e61638;}.cls-2{fill:#ffe713;}.cls-3{fill:#f3d0a8;}.cls-3,.cls-4,.cls-6{stroke:#000;stroke-miterlimit:10;stroke-width:2px;}.cls-5{fill:#fff;}.cls-6{fill:#ff4f6b;}.cls-7{font-size:30px;font-family:GOSEONG-GEUMGANGNURI, GOSEONG GEUMGANGNURI;}</style></defs><circle class="cls-1" cx="80" cy="105.7" r="80"/><circle class="cls-2" cx="80" cy="105.7" r="71.5"/><path class="cls-3" d="M155.2,52.8c-6.7-23.2-30.1-17.4-30.1-17.4-16-32.2-52.4-21.1-52.4-21.1C41.6,21.7,30.8,62.4,30.8,62.4,15.2,55.4,18.3,83,19.3,86.7s1.9,8,5.2,10.5c9.3,6.7,19.3-5.4,19.3-5.4,71.3,14.2,97.9-3.9,97.9-3.9S162,76,155.2,52.8Z" transform="translate(-7.5 -4.1)"/><path class="cls-4" d="M42.4,73.5S37.3,63.8,30,62.1c0,0,9.3-37.9,38-47.2,0,0,31-10.5,45.7,5.9C113.7,20.8,37.6-5.5,42.4,73.5Z" transform="translate(-7.5 -4.1)"/><path d="M43.2,43.8a5.8,5.8,0,0,1-4.4-9.3L53,17a5.7,5.7,0,0,1,6.7-1.6l16.4,7.4A5.6,5.6,0,0,1,79,30.2a5.7,5.7,0,0,1-7.5,2.9L59.1,27.5,47.7,41.7A6.2,6.2,0,0,1,43.2,43.8Z" transform="translate(-7.5 -4.1)"/><path d="M112.2,26.1a5.3,5.3,0,0,1-4-1L98,17.8l-5.5,8.1a5.6,5.6,0,0,1-7.8,1.6,5.8,5.8,0,0,1-1.6-7.9l8.7-13a6.2,6.2,0,0,1,3.7-2.4,5.5,5.5,0,0,1,4.3,1l15,10.7a5.7,5.7,0,0,1,1.3,7.9A5.2,5.2,0,0,1,112.2,26.1Z" transform="translate(-7.5 -4.1)"/><path d="M46.9,58.7h0a.5.5,0,0,1-.5-.6c0-.2,1.9-18.3,15.1-22s17.6,7.4,17.7,7.5a.6.6,0,1,1-1.1.3c-.1-.4-3.7-10.2-16.3-6.7s-14.3,20.9-14.3,21A.6.6,0,0,1,46.9,58.7Z" transform="translate(-7.5 -4.1)"/><path d="M87.9,40.4h-.1a.6.6,0,0,1-.4-.7c0-.4,1.8-11.1,9.4-14s16.8,3,18.9,7a.5.5,0,0,1-.2.8c-.3.2-.6,0-.8-.2-2-3.9-10.6-9.2-17.5-6.6s-8.7,13.1-8.7,13.2A.6.6,0,0,1,87.9,40.4Z" transform="translate(-7.5 -4.1)"/><ellipse cx="67.4" cy="61.3" rx="15.8" ry="13.3" transform="translate(-26.5 28.4) rotate(-23.9)"/><ellipse class="cls-5" cx="67.4" cy="61.3" rx="5.9" ry="4.9" transform="translate(-26.5 28.4) rotate(-23.9)"/><ellipse cx="102.4" cy="50.8" rx="13.8" ry="12.7" transform="translate(-19.3 41.7) rotate(-23.9)"/><ellipse class="cls-5" cx="102.4" cy="50.8" rx="5.3" ry="4.8" transform="translate(-19.3 41.7) rotate(-23.9)"/><ellipse class="cls-6" cx="120.5" cy="88.2" rx="12.4" ry="10.7" transform="translate(-30.6 43) rotate(-20.3)"/><text class="cls-7" transform="translate(45.1 119.9)">체험판<tspan x="-5.8" y="36">다운로드</tspan></text></svg>