<svg xmlns="http://www.w3.org/2000/svg" xmlns:xlink="http://www.w3.org/1999/xlink" viewBox="0 0 721 422.6"><defs><style>.cls-1{fill:none;}.cls-2{isolation:isolate;}.cls-3{clip-path:url(#clip-path);}.cls-4{mix-blend-mode:multiply;}.cls-5{fill:#f39801;}.cls-6{fill:#fff;}</style><clipPath id="clip-path" transform="translate(-23.7 -4.4)"><rect class="cls-1" width="758" height="433"/></clipPath></defs><g class="cls-2"><g id="Layer_1" data-name="Layer 1"><g class="cls-3"><image class="cls-4" width="158" height="173" transform="translate(1 78.6)" xlink:href="main-title1.png"/><path class="cls-5" d="M26,103.5l36.4-2.9a2.5,2.5,0,0,1,2.7,2.2l8.6,90.6,29.1-7.4a2,2,0,0,1,2.1.8l12.5,18.8a2,2,0,0,1-.6,2.7c-8.1,5.1-44,26.6-69,27.2a3.8,3.8,0,0,1-3.9-3.3L23.8,106.4A2.5,2.5,0,0,1,26,103.5Z" transform="translate(-23.7 -4.4)"/><path class="cls-5" d="M105.9,82.3l31.4,2.4a4.7,4.7,0,0,1,4.1,3.5c1.7,8.4,6,31.5,5.4,56.2a1.3,1.3,0,0,0,1.3,1.4h14.3a5.7,5.7,0,0,1,5.6,4.5,78.1,78.1,0,0,1,1,20.7,2.7,2.7,0,0,1-2.7,2.6H149.8a1.2,1.2,0,0,0-1.3,1.4l3.7,65s-28.2,4.9-31.5,0-18.1-137.4-17-155.7A2.1,2.1,0,0,1,105.9,82.3Z" transform="translate(-23.7 -4.4)"/><image class="cls-4" width="153" height="167" transform="translate(142 83.6)" xlink:href="main-title2.png"/><path class="cls-5" d="M209.8,91.6a42.1,42.1,0,1,0,42,42A42.1,42.1,0,0,0,209.8,91.6Zm0,59.2a17.2,17.2,0,1,1,17.1-17.2A17.2,17.2,0,0,1,209.8,150.8Z" transform="translate(-23.7 -4.4)"/><path class="cls-5" d="M193.7,183.4h24.4a1.1,1.1,0,0,1,1.1,1.1v11.7a1.1,1.1,0,0,0,1,1.1H248a1,1,0,0,1,1.1,1v23.3a1.1,1.1,0,0,1-1.1,1.1H166a1,1,0,0,1-1-1.1v-20a.9.9,0,0,1,1-1l25.6-.6a.9.9,0,0,0,1-1V184.5A1.1,1.1,0,0,1,193.7,183.4Z" transform="translate(-23.7 -4.4)"/><path class="cls-5" d="M302.3,147.8l-13.2-1.5a.9.9,0,0,1-.8-.8V89.1a2,2,0,0,0-2-2H261a1.9,1.9,0,0,0-2,1.9l-2.2,150.4a2,2,0,0,0,2,2h28.7a2,2,0,0,0,1.9-2V175.9a.9.9,0,0,1,.9-.9H302a1.9,1.9,0,0,0,2-1.8c1.4-13.7.6-20.9,0-23.8A1.8,1.8,0,0,0,302.3,147.8Z" transform="translate(-23.7 -4.4)"/><image class="cls-4" width="70" height="90" transform="translate(386 79.6)" xlink:href="main-title3.png"/><path class="cls-5" d="M410,83h27.5a1,1,0,0,1,1,1.1v27.2a1,1,0,0,0,1.1,1h25.8a1.1,1.1,0,0,1,1.1,1.1v25a1,1,0,0,1-1.1,1H443.7a1,1,0,0,0-1,1.1l-.5,16.4a1.2,1.2,0,0,1-.8,1c-3.7,1.1-20.1,5.3-28.4.1a1.1,1.1,0,0,1-.5-.9l-3.5-73A1,1,0,0,1,410,83Z" transform="translate(-23.7 -4.4)"/><image class="cls-4" width="139" height="166" transform="translate(309 81.6)" xlink:href="main-title4.png"/><path class="cls-5" d="M396.3,85l-22.1,2.4a1.7,1.7,0,0,0-1.5,1.7v10a1.6,1.6,0,0,1-1.5,1.7l-14.9,1.6a1.7,1.7,0,0,1-1.9-1.7V91.4a1.7,1.7,0,0,0-1.8-1.7l-18.5,1.6a1.8,1.8,0,0,0-1.5,1.7l1.9,67.8a1.5,1.5,0,0,0,1.2,1.5c27.5,7,60.2-2.4,65.1-4a1.4,1.4,0,0,0,1-.8c5.3-11.2-2.2-61.6-3.7-71.1A1.6,1.6,0,0,0,396.3,85Zm-36.5,59a1.7,1.7,0,0,1-1.8-1.5l-1.5-15.9h0a1.7,1.7,0,0,1,1.5-1.9l15.1-1.4a1.6,1.6,0,0,1,1.8,1.5l1.6,15.9a1.7,1.7,0,0,1-1.5,1.8Z" transform="translate(-23.7 -4.4)"/><path class="cls-5" d="M343,174.2l92.6-9.7a18.8,18.8,0,0,1,9.7,1.3c4.1,1.8,8.7,5.5,10.8,13.2,3.8,13.8.9,49.1.2,56.8a1.9,1.9,0,0,1-1.6,1.6L430,238.7a1.8,1.8,0,0,1-1.8-1.7l-2.7-41a1.7,1.7,0,0,0-2-1.6l-77,10.4a1.7,1.7,0,0,1-1.9-1.5l-3.1-27.2A1.6,1.6,0,0,1,343,174.2Z" transform="translate(-23.7 -4.4)"/><image class="cls-4" width="150" height="174" transform="translate(437 80.6)" xlink:href="main-title5.png"/><path class="cls-5" d="M507.1,97.6l27,11c.3.1.4.3.3.5l-15.7,55c-.1.3.2.6.6.5l12.1-4c.2,0,.4,0,.5.2l14.6,23.3a.4.4,0,0,0,.8-.2l4.9-98.6c0-.3.2-.5.5-.4,3.5.1,27.1,1,29.9,5.9s-1.8,53.4-2.4,58.9a.5.5,0,0,0,.5.5l12.9-.2a1.7,1.7,0,0,1,1.7,1.1c1.2,3.1,3.6,11.8-.1,25.4a1.9,1.9,0,0,1-1.8,1.4l-13.6-.3a.5.5,0,0,0-.5.5v61.6a3.1,3.1,0,0,1-2.3,3.1c-4.9,1.4-16.9,4.1-28.4.1a3.2,3.2,0,0,1-2.2-3.1l.3-35.9a.4.4,0,0,0-.7-.4c-3,1.8-15,8.9-16.5,8.7s-14.3-24.7-16.5-29a.5.5,0,0,0-.8-.1l-24.8,31.1a.4.4,0,0,1-.5.1c-2.4-.6-20.3-5.7-26.6-14.3a.4.4,0,0,1,0-.5c2.8-4.6,40.8-66.8,46.2-101.5A.4.4,0,0,1,507.1,97.6Z" transform="translate(-23.7 -4.4)"/><image class="cls-4" width="146" height="170" transform="translate(575 78.6)" xlink:href="main-title6.png"/><path class="cls-5" d="M644.3,101.4A44.1,44.1,0,1,0,686,143.1,44.1,44.1,0,0,0,644.3,101.4ZM642,162.2c-7.9,0-14.3-7.2-14.3-16.1s6.4-17.4,14.3-17.4,14.2,8.5,14.2,17.4S649.8,162.2,642,162.2Z" transform="translate(-23.7 -4.4)"/><path class="cls-5" d="M606.2,195.5l78.6-8a2.7,2.7,0,0,1,2.8,2.2l2.2,14.8a2.5,2.5,0,0,1-2.1,2.9l-77.9,13.2a2.6,2.6,0,0,1-3-2.1l-2.9-20.1A2.6,2.6,0,0,1,606.2,195.5Z" transform="translate(-23.7 -4.4)"/><path class="cls-5" d="M694.5,82.6h26.2a2.6,2.6,0,0,1,2.6,2.5l8.4,149.2a2.7,2.7,0,0,1-2,2.8c-4.5,1-14.9,3-22.7,1.2a2.7,2.7,0,0,1-2.1-2.3l-13-150.6A2.6,2.6,0,0,1,694.5,82.6Z" transform="translate(-23.7 -4.4)"/><image class="cls-4" width="149" height="171" transform="translate(67 251.6)" xlink:href="main-title7.png"/><path class="cls-5" d="M134.6,273.4c-20.7-1.6-41.5,22.5-44,54.4s14.6,59.7,35.3,61.3,41.5-23.1,43.9-55S155.3,275,134.6,273.4Zm13.2,58.1c-.9,14.6-9,26.1-18.1,25.6s-15.7-12.9-14.8-27.6,8.9-26.1,18-25.6S148.7,316.8,147.8,331.5Z" transform="translate(-23.7 -4.4)"/><path class="cls-5" d="M177.4,299.8h15.4a2,2,0,0,0,2-2.1V257.5a2.1,2.1,0,0,1,1.9-2c4.9-.5,18.4-1.2,28.7,5.1a2.1,2.1,0,0,1,.9,1.8l-7.6,147.5a1.9,1.9,0,0,1-1.5,1.9,45.6,45.6,0,0,1-25.8,0,2,2,0,0,1-1.5-2l1.5-39.6a1.9,1.9,0,0,0-1.9-2.1l-15.7-.9a2.1,2.1,0,0,1-1.9-2.1V342.7a2.1,2.1,0,0,1,2.1-2.1l17.6.7a2.1,2.1,0,0,0,2.1-2.1v-8.8a2,2,0,0,0-2-2.1l-15.4-.7a1.9,1.9,0,0,1-1.9-2c-.1-5.2,0-19.2,1-24.1A2,2,0,0,1,177.4,299.8Z" transform="translate(-23.7 -4.4)"/><image class="cls-4" width="148" height="172" transform="translate(205 247.6)" xlink:href="main-title8.png"/><path class="cls-5" d="M232.3,265.3l.9,10.2a4.5,4.5,0,0,0,4.8,4.1l59.9-4.3a4.4,4.4,0,0,1,4.7,3.7h0a4.4,4.4,0,0,1-4,5.3L249.5,289a4.5,4.5,0,0,0-4.1,4.1l-2.7,30.6a4.4,4.4,0,0,0,3.2,4.7c8.8,2.8,36.7,7.4,108-8.4a4.7,4.7,0,0,0,3.6-4.3c0-2.7-.2-6.3-1.3-8.9a4.6,4.6,0,0,0-4.7-2.7L282.7,312a4.5,4.5,0,0,1-5-4.4v-2.2a4.6,4.6,0,0,1,4.1-4.6c12.8-1.4,51-5.4,51.7-4.7s10.2-31.9-6-43.6a4.1,4.1,0,0,0-3-.9l-88,8.8A4.6,4.6,0,0,0,232.3,265.3Z" transform="translate(-23.7 -4.4)"/><path class="cls-5" d="M228.3,343.8v11a3.5,3.5,0,0,0,3.7,3.5L360,351a3.6,3.6,0,0,0,3.3-3.6V335a3.6,3.6,0,0,0-3.8-3.5l-127.9,8.8A3.5,3.5,0,0,0,228.3,343.8Z" transform="translate(-23.7 -4.4)"/><path class="cls-5" d="M342.5,358.7l-97.1,5.9a.7.7,0,0,0-.7.8l1.6,44.6a.8.8,0,0,0,.8.8l101.3-3.1a9.2,9.2,0,0,0,8.8-7.7c1.7-10.3,2.9-28.8-7.9-38.8A9.4,9.4,0,0,0,342.5,358.7Zm-29.2,30.4H278.9a.8.8,0,0,1-.8-.8v-8a.9.9,0,0,1,.8-.8h34.4a.9.9,0,0,1,.8.8v8A.8.8,0,0,1,313.3,389.1Z" transform="translate(-23.7 -4.4)"/><image class="cls-4" width="142" height="169" transform="translate(377 250.6)" xlink:href="main-title9.png"/><path class="cls-5" d="M470.5,256H445.8a1.5,1.5,0,0,0-1.5,1.5v7.2a1.5,1.5,0,0,1-1.5,1.5h-17a1.5,1.5,0,0,1-1.4-1.5v-7.2a1.5,1.5,0,0,0-1.5-1.5H401.8a1.5,1.5,0,0,0-1.5,1.5l1.2,67.7a1.5,1.5,0,0,0,1.5,1.5h64.1c6.1,0,5.1-59.2,4.9-69.2A1.5,1.5,0,0,0,470.5,256Zm-29.8,52.1H427a1.5,1.5,0,0,1-1.5-1.5v-16a1.5,1.5,0,0,1,1.5-1.5h13.7a1.5,1.5,0,0,1,1.4,1.5v16A1.4,1.4,0,0,1,440.7,308.1Z" transform="translate(-23.7 -4.4)"/><path class="cls-5" d="M485.1,254.7l22.7,2.5a2.4,2.4,0,0,1,2.2,2.4v26a2.5,2.5,0,0,0,2.4,2.5l14.2.9a2.5,2.5,0,0,1,2.4,2.5v24.1a2.5,2.5,0,0,1-2.5,2.5l-18.6-.3a2.4,2.4,0,0,0-2.5,2l-1,6.4a2.6,2.6,0,0,1-2,2c-3.9.9-14.2,2.6-22.9-.8a2.6,2.6,0,0,1-1.6-2.5l4.4-67.9A2.5,2.5,0,0,1,485.1,254.7Z" transform="translate(-23.7 -4.4)"/><path class="cls-5" d="M462.4,333.5c-30.2,0-56.7,15.3-56.7,36.5s26.5,40.4,56.7,40.4S520,395.9,520,374.7,492.5,333.5,462.4,333.5Zm.4,55.6c-15.1,0-27.4-7.3-27.4-16.3s12.3-16.4,27.4-16.4,27.5,7.4,27.5,16.4S478,389.1,462.8,389.1Z" transform="translate(-23.7 -4.4)"/><image class="cls-4" width="150" height="169" transform="translate(508 248.6)" xlink:href="main-title10.png"/><path class="cls-5" d="M588.8,282.3l15-1.3a.6.6,0,0,0,.5-.6l-1-15.2a.6.6,0,0,0-.6-.6l-27.1.7a.6.6,0,0,1-.6-.6v-8.1c0-.3-.2-.6-.5-.5l-18.4.6a.6.6,0,0,0-.6.6v10.2a.6.6,0,0,1-.5.6l-23.4,1.2a.6.6,0,0,0-.5.6v16.9a.5.5,0,0,0,.6.5l18.7-1.6a31.4,31.4,0,0,0-11,24c0,18.3,15.5,30.4,34.2,29.3,15.4-1,28.6-12.3,30.5-27.7C605.8,298.3,599,287.9,588.8,282.3Zm-14.6,38.1A12.7,12.7,0,1,1,584.6,310,12.8,12.8,0,0,1,574.2,320.4Z" transform="translate(-23.7 -4.4)"/><path class="cls-5" d="M611.3,252.9h26.3a.6.6,0,0,1,.6.6l2.3,29.5a.6.6,0,0,0,.6.5l25.4-1.2c.4,0,.6.2.6.5l.9,28.8a.6.6,0,0,1-.5.6l-23.7,1.4a.5.5,0,0,0-.5.5v15a.5.5,0,0,1-.3.5c-1.7,1-11.4,5.8-27.4-1.8a.5.5,0,0,1-.3-.5l-4.6-73.8A.6.6,0,0,1,611.3,252.9Z" transform="translate(-23.7 -4.4)"/><path class="cls-5" d="M545.4,344.1l95.2-7.1a19.7,19.7,0,0,1,8.3,1.2c3.8,1.6,8.1,5,9.2,12.4v.2l2,53.1a1.6,1.6,0,0,1-.9,1.5c-3,1.7-13.5,6.3-30.7,1.3a1.6,1.6,0,0,1-1.2-1.6V364.2a1.6,1.6,0,0,0-1.9-1.6l-78,11.1a1.7,1.7,0,0,1-1.9-1.4c-.8-4.8-3-19.3-1.7-26.8A1.9,1.9,0,0,1,545.4,344.1Z" transform="translate(-23.7 -4.4)"/><g class="cls-4"><path d="M262.1,28.9,263,22l6.1-1.1L268,14.6l-22.7.8v4l-14.2,1.5v9.5l9.1.3-4.9,18.7,9.8,2.9,1.5-11.4,4.7.5.2,6.3h9.1l.9-11.1,11.7,2.9V31.3Zm-7.9,2.7-6.6-.4.2-6.2,6.4-.7Z" transform="translate(-23.7 -4.4)"/><polygon points="246.4 6.1 255.3 4 257.6 15.8 264.9 16.4 265.6 23.6 259 24.1 259 35.9 251.5 35.9 246.4 6.1"/><path d="M277.3,40.2a14.6,14.6,0,1,0,14.6,14.6A14.6,14.6,0,0,0,277.3,40.2Zm1.5,20.2c-4,1-7.9-.6-8.8-3.7s1.8-6.5,5.8-7.5,8,.5,8.8,3.6S282.9,59.3,278.8,60.4Z" transform="translate(-23.7 -4.4)"/></g><path class="cls-6" d="M259.1,25.9,260,19l6.1-1.1L265,11.6l-22.7.8v4l-14.2,1.5v9.5l9.1.3-4.9,18.7,9.8,2.9,1.5-11.4,4.7.5.2,6.3h9.1l.9-11.1,11.7,2.9V28.3Zm-7.9,2.7-6.6-.4.2-6.2,6.4-.7Z" transform="translate(-23.7 -4.4)"/><polygon class="cls-6" points="243.4 3.1 252.3 1 254.6 12.8 261.9 13.4 262.6 20.6 256 21.1 256 32.9 248.5 32.9 243.4 3.1"/><path class="cls-6" d="M274.3,37.2a14.6,14.6,0,1,0,14.6,14.6A14.6,14.6,0,0,0,274.3,37.2Zm1.5,20.2c-4,1-7.9-.6-8.8-3.7s1.8-6.5,5.8-7.5,8,.5,8.8,3.6S279.9,56.3,275.8,57.4Z" transform="translate(-23.7 -4.4)"/><g class="cls-4"><path d="M302.1,21l-1.5,7.4a.2.2,0,0,0,.2.2,59.5,59.5,0,0,1,8.8,1.9,14.4,14.4,0,0,1,10.3,11.8h0l-26.2-5.4-.3.2-.6,7.1c0,.1,0,.2.1.2l14.6,1.8a.2.2,0,0,1,.2.2l-1.6,15.8a.2.2,0,0,0,.2.2l6.2.6a.2.2,0,0,0,.2-.2l1.2-15.5.3-.2,16.3,3.3.3-.2.6-4.5-.2-.2-5.7-1.7c-.1,0-.2-.1-.1-.2.4-2.1,4-23.6-23.1-22.7C302.2,20.9,302.1,20.9,302.1,21Z" transform="translate(-23.7 -4.4)"/></g><path class="cls-6" d="M299.1,18l-1.5,7.4a.2.2,0,0,0,.2.2,59.5,59.5,0,0,1,8.8,1.9,14.4,14.4,0,0,1,10.3,11.8h0l-26.2-5.4-.3.2-.6,7.1c0,.1,0,.2.1.2l14.6,1.8a.2.2,0,0,1,.2.2l-1.6,15.8a.2.2,0,0,0,.2.2l6.2.6a.2.2,0,0,0,.2-.2l1.2-15.5.3-.2,16.3,3.3.3-.2.6-4.5-.2-.2-5.7-1.7c-.1,0-.2-.1-.1-.2.4-2.1,4-23.6-23.1-22.7C299.2,17.9,299.1,17.9,299.1,18Z" transform="translate(-23.7 -4.4)"/><g class="cls-4"><path d="M336.2,21.1l4.3-2.2c.1-.1.2,0,.2.1.7,1.9,6.7,16.3,23.2,5.2h.2c.6.5,3.5,3.3,1.8,6.9h-.1c-.9.7-21.5,16.2-29.7-9.9C336.1,21.2,336.1,21.1,336.2,21.1Z" transform="translate(-23.7 -4.4)"/><polygon points="308.9 35.7 347.4 29.7 347.8 38.8 309.7 42.5 308.9 35.7"/><path d="M339.5,48.4l3.7-1.8a.3.3,0,0,1,.5.1c1.2,2.2,9.3,14.4,22.7,2.2a.4.4,0,0,1,.6.1l2.9,7.1a.7.7,0,0,1-.1.5c-2.5,1.7-22.7,15.8-30.5-7.8C339.2,48.6,339.3,48.4,339.5,48.4Z" transform="translate(-23.7 -4.4)"/></g><path class="cls-6" d="M333.2,18.1l4.3-2.2c.1-.1.2,0,.2.1.7,1.9,6.7,16.3,23.2,5.2h.2c.6.5,3.5,3.3,1.8,6.9h-.1c-.9.7-21.5,16.2-29.7-9.9C333.1,18.2,333.1,18.1,333.2,18.1Z" transform="translate(-23.7 -4.4)"/><polygon class="cls-6" points="305.9 32.7 344.4 26.7 344.8 35.8 306.7 39.5 305.9 32.7"/><path class="cls-6" d="M336.5,45.4l3.7-1.8a.3.3,0,0,1,.5.1c1.2,2.2,9.3,14.4,22.7,2.2a.4.4,0,0,1,.6.1l2.9,7.1a.7.7,0,0,1-.1.5c-2.5,1.7-22.7,15.8-30.5-7.8C336.2,45.6,336.3,45.4,336.5,45.4Z" transform="translate(-23.7 -4.4)"/><g class="cls-4"><path d="M419.4,11.1l-13.9-.7-.4-2.5-8.7-.5v22l31.8,3.1V19.1C427.6,12.2,419.4,11.1,419.4,11.1Zm1.2,15.1-17-2.9V16.8C424.2,16.3,420.6,26.2,420.6,26.2Z" transform="translate(-23.7 -4.4)"/><path d="M407.1,31.2l5.6.7a.3.3,0,0,1,.3.3v4.9c0,.1.1.2.2.3l20.3,3.5c.1,0,.3.2.2.3l-1.2,6.5a.3.3,0,0,1-.3.3l-18.5-2.4-.3.2-1.1,3.9a.4.4,0,0,0,.1.3l11.9,11.7c.1.1.2.3.1.4l-5.8,7a.4.4,0,0,1-.5,0L405.2,55.3h-.4L392.1,66.9c-.1.1-.3.1-.5-.1L386,59.2c-.1-.2-.1-.3,0-.4l16.8-14.1a.3.3,0,0,0-.2-.5l-17.8-2.6a.3.3,0,0,1-.3-.3l.9-9.8c0-.2.2-.3.4-.3l20.4,4a.3.3,0,0,0,.3-.3l.3-3.4A.3.3,0,0,1,407.1,31.2Z" transform="translate(-23.7 -4.4)"/></g><path class="cls-6" d="M416.4,8.1l-13.9-.7-.4-2.5-8.7-.5v22l31.8,3.1V16.1C424.6,9.2,416.4,8.1,416.4,8.1Zm1.2,15.1-17-2.9V13.8C421.2,13.3,417.6,23.2,417.6,23.2Z" transform="translate(-23.7 -4.4)"/><path class="cls-6" d="M404.1,28.2l5.6.7a.3.3,0,0,1,.3.3v4.9c0,.1.1.2.2.3l20.3,3.5c.1,0,.3.2.2.3l-1.2,6.5a.3.3,0,0,1-.3.3l-18.5-2.4-.3.2-1.1,3.9a.4.4,0,0,0,.1.3l11.9,11.7c.1.1.2.3.1.4l-5.8,7a.4.4,0,0,1-.5,0L402.2,52.3h-.4L389.1,63.9c-.1.1-.3.1-.5-.1L383,56.2c-.1-.2-.1-.3,0-.4l16.8-14.1a.3.3,0,0,0-.2-.5l-17.8-2.6a.3.3,0,0,1-.3-.3l.9-9.8c0-.2.2-.3.4-.3l20.4,4a.3.3,0,0,0,.3-.3l.3-3.4A.3.3,0,0,1,404.1,28.2Z" transform="translate(-23.7 -4.4)"/><g class="cls-4"><path d="M453.9,24.4l-11.4.6-.8-3.5h-7.3l2,22.7,22.3-2.8a64.9,64.9,0,0,0,1.4-11.5,5.1,5.1,0,0,0-2.6-4.7A7.1,7.1,0,0,0,453.9,24.4Zm-.1,12.7H442.6V29.6C455.5,28.1,453.8,37.1,453.8,37.1Z" transform="translate(-23.7 -4.4)"/><polygon points="439.4 17.9 447.3 18.5 447.3 26.8 452.6 26.8 452.6 34.2 446 34.2 446 38.8 439.9 38.1 439.4 17.9"/><path d="M451.2,43.1s.3,3.5,0,3.8,13.8.6,13.8.6v2.7l-15.1-.6v6.2l2.9.7s4.3,18.3,23.2,8.2V57l-3.7-.2-.5,2s-9.1,5.5-12.8-3.3h12.1l.8-12.4Z" transform="translate(-23.7 -4.4)"/></g><path class="cls-6" d="M450.9,21.4l-11.4.6-.8-3.5h-7.3l2,22.7,22.3-2.8a64.9,64.9,0,0,0,1.4-11.5,5.1,5.1,0,0,0-2.6-4.7A7.1,7.1,0,0,0,450.9,21.4Zm-.1,12.7H439.6V26.6C452.5,25.1,450.8,34.1,450.8,34.1Z" transform="translate(-23.7 -4.4)"/><polygon class="cls-6" points="436.4 14.9 444.3 15.5 444.3 23.8 449.6 23.8 449.6 31.2 443 31.2 443 35.8 436.9 35.1 436.4 14.9"/><path class="cls-6" d="M448.2,40.1s.3,3.5,0,3.8,13.8.6,13.8.6v2.7l-15.1-.6v6.2l2.9.7s4.3,18.3,23.2,8.2V54l-3.7-.2-.5,2s-9.1,5.5-12.8-3.3h12.1l.8-12.4Z" transform="translate(-23.7 -4.4)"/><g class="cls-4"><path d="M510.6,27.4l-.3,6.5-6.4-.6s.5-14.2-22-13.3l-.6,7.7s10.2-.3,15.6,5.2v2.9H479.3v5.1h2.5s-3.9,26.2,22.4,12.8V49.3l3.2-.2v8.4h5.3l8-27.3Zm-.2,16.1h-9.2v4.9s-13.5,6.5-13.4-6.7h13.1V38.1h9.5Z" transform="translate(-23.7 -4.4)"/></g><path class="cls-6" d="M507.6,24.4l-.3,6.5-6.4-.6s.5-14.2-22-13.3l-.6,7.7s10.2-.3,15.6,5.2v2.9H476.3v5.1h2.5s-3.9,26.2,22.4,12.8V46.3l3.2-.2v8.4h5.3l8-27.3Zm-.2,16.1h-9.2v4.9s-13.5,6.5-13.4-6.7h13.1V35.1h9.5Z" transform="translate(-23.7 -4.4)"/><g class="cls-4"><path d="M534.1,14l7.8,1.8a2,2,0,0,1,1.5,2.1c-.7,6-3.1,26.1-6.2,27.3a10.8,10.8,0,0,1-5.8.4,1.9,1.9,0,0,1-1.6-2l2-27.9A1.8,1.8,0,0,1,534.1,14Z" transform="translate(-23.7 -4.4)"/><path d="M528,49.7v7.1a.9.9,0,0,0,.8.8l4.7.5a.7.7,0,0,0,.9-.6l1.6-7.2a.8.8,0,0,0-.7-1l-6.4-.4A.8.8,0,0,0,528,49.7Z" transform="translate(-23.7 -4.4)"/></g><path class="cls-6" d="M531.1,11l7.8,1.8a2,2,0,0,1,1.5,2.1c-.7,6-3.1,26.1-6.2,27.3a10.8,10.8,0,0,1-5.8.4,1.9,1.9,0,0,1-1.6-2l2-27.9A1.8,1.8,0,0,1,531.1,11Z" transform="translate(-23.7 -4.4)"/><path class="cls-6" d="M525,46.7v7.1a.9.9,0,0,0,.8.8l4.7.5a.7.7,0,0,0,.9-.6l1.6-7.2a.8.8,0,0,0-.7-1l-6.4-.4A.8.8,0,0,0,525,46.7Z" transform="translate(-23.7 -4.4)"/></g></g></g></svg>