<svg id="Layer_1" data-name="Layer 1" xmlns="http://www.w3.org/2000/svg" xmlns:xlink="http://www.w3.org/1999/xlink" viewBox="0 0 81.7 81.7"><defs><style>.cls-1{fill:none;}.cls-2{clip-path:url(#clip-path);}.cls-3{fill:#fff;}.cls-4{fill:#1da1f2;}</style><clipPath id="clip-path" transform="translate(-9.2 -9.2)"><rect class="cls-1" width="100" height="100"/></clipPath></defs><g class="cls-2"><circle class="cls-3" cx="40.8" cy="40.8" r="40.8"/><path class="cls-4" d="M39.6,72.8c21.2,0,32.8-17.5,32.8-32.8V38.5a22.8,22.8,0,0,0,5.7-5.9,24.8,24.8,0,0,1-6.6,1.8A11.6,11.6,0,0,0,76.6,28a23.6,23.6,0,0,1-7.4,2.8,11.6,11.6,0,0,0-8.4-3.6A11.4,11.4,0,0,0,49.3,38.7a10.9,10.9,0,0,0,.3,2.6,33.1,33.1,0,0,1-23.8-12,11.5,11.5,0,0,0-1.6,5.8,11.6,11.6,0,0,0,5.2,9.6,11.3,11.3,0,0,1-5.2-1.5c-.1.1-.1.1-.1.2a11.6,11.6,0,0,0,9.3,11.3,15.4,15.4,0,0,1-3,.4l-2.2-.2a11.5,11.5,0,0,0,10.8,8,23.4,23.4,0,0,1-14.4,4.9H21.9a33.3,33.3,0,0,0,17.7,5.1" transform="translate(-9.2 -9.2)"/></g></svg>