<svg xmlns="http://www.w3.org/2000/svg" viewBox="0 0 963 89.5"><defs><style>.cls-1{isolation:isolate;}.cls-2{fill:#50bcdf;}.cls-3{mix-blend-mode:multiply;}.cls-4{fill:#006787;}.cls-5{fill:#fff;}</style></defs><g class="cls-1"><g id="Layer_1" data-name="Layer 1"><path class="cls-2" d="M960.6,101.3a3024.1,3024.1,0,0,0-946.7-.6c-2.7-16.9-5.3-33.9-8-50.8a3075.9,3075.9,0,0,1,962.9-.5C966.1,66.7,963.3,84,960.6,101.3Z" transform="translate(-5.9 -11.7)"/><g class="cls-3"><path class="cls-4" d="M27.8,67.1l-.9-4.3a1.1,1.1,0,0,1,.4-1.3,5.6,5.6,0,0,1,2.1-.7h2.2a1.2,1.2,0,0,1,.8,1.2c.2,1.4.3,2.9.4,4.3a1.6,1.6,0,0,1-.5,1.4,6,6,0,0,1-1.8.6,3.3,3.3,0,0,1-1.8-.1A1.5,1.5,0,0,1,27.8,67.1Zm8.1-1.2c-.3-1.5-.7-2.9-1-4.3a1.1,1.1,0,0,1,.5-1.3,5.6,5.6,0,0,1,2.1-.7,7.9,7.9,0,0,1,2.2,0,1.2,1.2,0,0,1,.8,1.1l.3,4.4a1.6,1.6,0,0,1-.4,1.4l-1.8.6a3.7,3.7,0,0,1-1.9-.1A1.4,1.4,0,0,1,35.9,65.9Z" transform="translate(-5.9 -11.7)"/><path class="cls-4" d="M50.9,80.1c-1.8.4-2.9-.3-3.2-2L45,61.6c-.1-.5.2-.9.8-1.2a7,7,0,0,1,2-.8,3.9,3.9,0,0,1,1.9.2,1.2,1.2,0,0,1,1,.9c.7,5.3,1.5,10.5,2.3,15.7l9.9-1.8c.3-.1.4,0,.6.2a9.4,9.4,0,0,1,.3.9,3.1,3.1,0,0,1-.1,1c-.1.4-.3.6-.5.6ZM62.6,58.2a1.2,1.2,0,0,1,.8-1.2,5.8,5.8,0,0,1,2.1-.8,4.9,4.9,0,0,1,2.1.2,1.3,1.3,0,0,1,1,1.1c.3,2.6.5,5.2.8,7.8h3.3a.9.9,0,0,1,.6.3,4.6,4.6,0,0,1,.3.9,3.4,3.4,0,0,1-.1,1c-.1.3-.3.4-.6.5l-3.2.6c.4,3.8.8,7.6,1.1,11.4.1.3-.1.5-.6.8l-1.7.4a4.8,4.8,0,0,1-1.7,0c-.5-.1-.8-.3-.8-.5C64.9,73.1,63.7,65.7,62.6,58.2Z" transform="translate(-5.9 -11.7)"/><path class="cls-4" d="M77.9,77.4a1,1,0,0,1-.8-.4,1.9,1.9,0,0,1-.4-.9,2.8,2.8,0,0,1,.1-.9c.1-.3.3-.4.6-.5l15.2-3.2a.8.8,0,0,1,.8.3,1.5,1.5,0,0,1,.4.9,1.6,1.6,0,0,1-.1,1,.9.9,0,0,1-.6.6ZM75.6,63.6a9.7,9.7,0,0,1,.4-4.2,6.5,6.5,0,0,1,2.3-3.1A7.6,7.6,0,0,1,82,54.8a6.7,6.7,0,0,1,4,.5,7,7,0,0,1,3,2.4,8.4,8.4,0,0,1,1.5,4,10,10,0,0,1-.4,4.3,6.8,6.8,0,0,1-2.3,3.2,6.6,6.6,0,0,1-3.7,1.6,7.8,7.8,0,0,1-4-.5,7.5,7.5,0,0,1-3-2.6A11.7,11.7,0,0,1,75.6,63.6Zm9.8-1.3a10.2,10.2,0,0,0-1.1-3.6c-.6-.9-1.2-1.3-1.9-1.2a2.1,2.1,0,0,0-1.6,1.7,9.3,9.3,0,0,0-.1,3.8,9.5,9.5,0,0,0,1.2,3.8c.5.9,1.2,1.4,1.9,1.3s1.2-.7,1.5-1.8A10.3,10.3,0,0,0,85.4,62.3Zm7.1-8.1c-.1-.5.1-.9.7-1.3a10.3,10.3,0,0,1,2.1-.7,4.7,4.7,0,0,1,2.1.2,1.4,1.4,0,0,1,1.1,1.1c.6,7.5,1.3,15,2,22.5,0,.2-.2.5-.7.7a5.8,5.8,0,0,1-1.7.5H96.4c-.5-.1-.8-.2-.8-.5C94.5,69.1,93.5,61.7,92.5,54.2Z" transform="translate(-5.9 -11.7)"/><path class="cls-4" d="M129.8,49.6c-.1-.5.2-.9.8-1.3a8.6,8.6,0,0,1,2.1-.7,4.9,4.9,0,0,1,2.1.2c.6.3,1,.6,1,1.1.6,7.5,1.1,15,1.7,22.5.1.3-.2.6-.6.8l-1.7.4a5.4,5.4,0,0,1-1.8,0c-.5-.1-.7-.3-.8-.6-.3-2.3-.5-4.6-.8-6.9l-3.9.3a9.2,9.2,0,0,1-2.3,4.1,7.7,7.7,0,0,1-4,1.8,7,7,0,0,1-4.3-.8,9.8,9.8,0,0,1-3.3-3.4,14.3,14.3,0,0,1-1.6-5.5,13.4,13.4,0,0,1,.3-5.7,7.6,7.6,0,0,1,2.3-4,7.3,7.3,0,0,1,4-1.8,6.3,6.3,0,0,1,4.3.8,7.6,7.6,0,0,1,3,2.9h.2l3.7-.7C130.1,51.9,129.9,50.7,129.8,49.6ZM123,60.3a18.8,18.8,0,0,0-1.4-5.7c-.7-1.3-1.4-1.9-2.3-1.8s-1.4.8-1.7,2.2a19.7,19.7,0,0,0,0,6,19.6,19.6,0,0,0,1.4,5.8c.7,1.2,1.4,1.8,2.3,1.7s1.4-.8,1.7-2.2A19.7,19.7,0,0,0,123,60.3Zm5.2-.6a14.6,14.6,0,0,1,.2,2.9l3-.6c-.3-1.9-.5-3.9-.8-5.9l-3.1.3A11.4,11.4,0,0,1,128.2,59.7Z" transform="translate(-5.9 -11.7)"/><path class="cls-4" d="M142,63.5a1.1,1.1,0,0,1-.8-.3,1.9,1.9,0,0,1-.4-.9,2.9,2.9,0,0,1,.2-.9,1.3,1.3,0,0,1,.7-.6l20.1-2.5a1.1,1.1,0,0,1,.8.3,1.2,1.2,0,0,1,.3.9,1.6,1.6,0,0,1-.1,1,.9.9,0,0,1-.8.5Zm2.8-5a2.6,2.6,0,0,1-1.9-.3,2.7,2.7,0,0,1-.9-1.5l-.6-3.2c-.2-1.3.4-2,2-2.2l11.8-1.4a14.9,14.9,0,0,0-.2-2.1l-13.4,1.7c-.3.1-.5,0-.7-.3a2,2,0,0,1-.3-1.1,2.7,2.7,0,0,1,0-.9.7.7,0,0,1,.5-.4L157.8,45c1.9-.2,2.8.5,2.9,2.1v2.8a2.1,2.1,0,0,1-.4,1.5,2.2,2.2,0,0,1-1.7.6l-11.8,1.4.3,2,13.4-1.5a.5.5,0,0,1,.6.4,1.9,1.9,0,0,1,.4.9,3.1,3.1,0,0,1-.1,1c-.2.3-.4.5-.6.5Zm2.4,14.9a2.6,2.6,0,0,1-1.9-.3,2,2,0,0,1-.9-1.6c-.2-1.4-.5-2.7-.7-4.1a2.4,2.4,0,0,1,.4-1.9,2.7,2.7,0,0,1,2-.9L159.2,63a2.8,2.8,0,0,1,2.1.4,2.5,2.5,0,0,1,.8,1.8c.1,1.4.1,2.9.2,4.3a1.8,1.8,0,0,1-.5,1.7,2.5,2.5,0,0,1-1.8.7Zm9.5-7.6L149,66.9c.3,1.1.5,2.3.7,3.4l7.3-.7Z" transform="translate(-5.9 -11.7)"/><path class="cls-4" d="M167.8,57.9a3,3,0,0,1-2-.3A2.2,2.2,0,0,1,165,56c-.4-3.3-.9-6.6-1.4-9.9a1.3,1.3,0,0,1,.6-1.3,5.2,5.2,0,0,1,2-.6,4.4,4.4,0,0,1,2,.2,1.5,1.5,0,0,1,1,1.2l.3,3.1,4.1-.5c-.2-1.1-.3-2.3-.5-3.4a1.6,1.6,0,0,1,.7-1.3,5.2,5.2,0,0,1,2-.6,4.4,4.4,0,0,1,2,.2,1.6,1.6,0,0,1,.9,1.2c.2,3.4.4,6.8.7,10.2,0,.8-.1,1.4-.5,1.7a3,3,0,0,1-1.8.7Zm2.7,7.3a5.4,5.4,0,0,1,.8-3.3,8,8,0,0,1,3-2.3,15.4,15.4,0,0,1,4.7-1.2,14.9,14.9,0,0,1,4.8.2,6.8,6.8,0,0,1,3.4,1.7,4.8,4.8,0,0,1,1.5,3,4.9,4.9,0,0,1-.9,3.3,6.9,6.9,0,0,1-2.9,2.3,16.2,16.2,0,0,1-4.7,1.2,14.9,14.9,0,0,1-4.8-.2,7.3,7.3,0,0,1-3.4-1.7A4.4,4.4,0,0,1,170.5,65.2Zm3.8-10.7c-.1-1.2-.3-2.4-.4-3.7l-4.2.5L170,55Zm8.9,9.4a2.8,2.8,0,0,0-1.2-2.1,4.2,4.2,0,0,0-2.7-.6,4.5,4.5,0,0,0-2.5,1.1,2.9,2.9,0,0,0-.8,2.3,2.5,2.5,0,0,0,1.2,2,3.9,3.9,0,0,0,2.7.6,4.1,4.1,0,0,0,2.5-1.1A2.7,2.7,0,0,0,183.2,63.9Zm-1.7-20.3a1,1,0,0,1,.7-1.2,6.3,6.3,0,0,1,2.2-.7,4.7,4.7,0,0,1,2.1.3c.7.2,1,.6,1,1.1s.1,2.8.1,4.2h3.3a.5.5,0,0,1,.5.3,1.4,1.4,0,0,1,.3.9,1.6,1.6,0,0,1-.1,1,.6.6,0,0,1-.6.5l-3.3.5c.1,1.9.1,3.7.2,5.6,0,.3-.2.5-.7.7a4.3,4.3,0,0,1-1.7.4h-1.7c-.5-.1-.8-.3-.8-.6Z" transform="translate(-5.9 -11.7)"/><path class="cls-4" d="M192.9,46.7a.9.9,0,0,1-.7-.3,1.6,1.6,0,0,1-.3-.9,3.1,3.1,0,0,1,.1-1,1.3,1.3,0,0,1,.6-.5l4.9-.5c-.1-.6-.1-1.2-.2-1.8s.3-.8.9-1.1a3.2,3.2,0,0,1,2-.6,3.3,3.3,0,0,1,2,.2c.6.2.9.5.9,1s.1,1.1.1,1.7l4.9-.5a.6.6,0,0,1,.6.3,3.6,3.6,0,0,1,.4.9,3.6,3.6,0,0,1-.2,1.1.6.6,0,0,1-.6.4l-2.2.3a5.8,5.8,0,0,1,1.5,1.1,5,5,0,0,1,1.2,2.9,5.4,5.4,0,0,1-.7,3.3,7.2,7.2,0,0,1-2.5,2.4,11.2,11.2,0,0,1-3.9,1.1,10.5,10.5,0,0,1-4-.4,5.9,5.9,0,0,1-2.9-1.9,5.8,5.8,0,0,1-1.3-3.1,4.5,4.5,0,0,1,.7-3,4.7,4.7,0,0,1,1.1-1.3Zm18.4,12.7-12.2,1.2a.9.9,0,0,1-.7-.3,1.6,1.6,0,0,1-.3-.9,2.2,2.2,0,0,1,.1-.9,1,1,0,0,1,.6-.5l15-1.4a2.5,2.5,0,0,1,2,.4,2.2,2.2,0,0,1,.8,1.8l.3,6.2a1.3,1.3,0,0,1-.7,1.1,3.5,3.5,0,0,1-1.8.5,3.9,3.9,0,0,1-1.9-.2c-.5-.2-.8-.5-.8-.9C211.5,63.4,211.4,61.4,211.3,59.4Zm-7.6-9.5a4.3,4.3,0,0,0-.9-2.4,2.4,2.4,0,0,0-1.9-.7,2.2,2.2,0,0,0-1.8,1.1,3.9,3.9,0,0,0-.5,2.5,4,4,0,0,0,.9,2.3,2.2,2.2,0,0,0,2,.7,2.1,2.1,0,0,0,1.7-1A4,4,0,0,0,203.7,49.9Zm6.5-9c-.1-.5.1-.9.7-1.3a6.4,6.4,0,0,1,2.2-.6,3.6,3.6,0,0,1,2.1.3c.7.2,1,.6,1,1.1,0,2,.1,4,.1,6.1h3.4a.5.5,0,0,1,.5.3,1.6,1.6,0,0,1,.3.9,1.6,1.6,0,0,1-.1,1c-.2.3-.4.5-.6.5l-3.4.5c.1,1.6.1,3.3.2,4.9s-.3.5-.7.7a4.7,4.7,0,0,1-1.7.4,3.1,3.1,0,0,1-1.7-.1c-.5-.1-.8-.3-.8-.5Z" transform="translate(-5.9 -11.7)"/><path class="cls-4" d="M223.6,43.7c-.2-1.4-.4-2.9-.7-4.3a1.3,1.3,0,0,1,.6-1.3,4.6,4.6,0,0,1,2.1-.5,4.8,4.8,0,0,1,2.2.1,1.2,1.2,0,0,1,.8,1.2v4.4a1.7,1.7,0,0,1-.5,1.3,5.6,5.6,0,0,1-1.8.5,3.4,3.4,0,0,1-1.9-.2A1.5,1.5,0,0,1,223.6,43.7Zm8.1-.6-.6-4.4a1.1,1.1,0,0,1,.5-1.3,4.6,4.6,0,0,1,2.1-.5,7.8,7.8,0,0,1,2.3.1,1.3,1.3,0,0,1,.7,1.2v4.4a1.6,1.6,0,0,1-.5,1.3,3.9,3.9,0,0,1-1.8.5,3.4,3.4,0,0,1-1.9-.2A1.5,1.5,0,0,1,231.7,43.1Z" transform="translate(-5.9 -11.7)"/><path class="cls-4" d="M252.8,58a1.2,1.2,0,0,1-1-.5,1.4,1.4,0,0,1-.6-1.1.6.6,0,0,1,.3-.6,11.8,11.8,0,0,0,3.5-3.9,10.1,10.1,0,0,0,.9-5.7c-.2-2.7-.4-5.3-.7-8a1.4,1.4,0,0,1,.9-1.2,3.6,3.6,0,0,1,2.2-.6,5.8,5.8,0,0,1,2.4.2,1.4,1.4,0,0,1,1,1.2c.1,2.6.3,5.3.5,7.9a10,10,0,0,0,1.7,5.5,10.4,10.4,0,0,0,4.1,3.3c.2.2.4.4.4.6a1.9,1.9,0,0,1-.4,1.2,1.4,1.4,0,0,1-1.1.6h-.3a17.6,17.6,0,0,1-4.3-2.5,9.7,9.7,0,0,1-2.9-3.7,10.1,10.1,0,0,1-2.3,4.1,15.6,15.6,0,0,1-3.9,3.1Zm16.1-21.6c-.1-.5.2-.9.8-1.3a4.6,4.6,0,0,1,2.1-.5,3.6,3.6,0,0,1,2.1.3c.7.2,1,.6,1,1.1.2,7.6.4,15.1.7,22.6,0,.3-.2.6-.7.7a4.3,4.3,0,0,1-1.7.4h-1.7c-.5-.2-.8-.4-.8-.6Z" transform="translate(-5.9 -11.7)"/><path class="cls-4" d="M283.7,55.4a1.9,1.9,0,0,1-1.9-.3,2.2,2.2,0,0,1-.8-1.6c-.3-2.6-.5-5.2-.8-7.7s.5-2.1,2-2.2l7.1-.5c-.1-1.9-.2-3.9-.4-5.8l-8.5.6c-.3,0-.5-.1-.7-.5l-.3-1.1a2.2,2.2,0,0,1,.1-.9.5.5,0,0,1,.5-.4l11.8-.6c1.8-.1,2.8.7,2.8,2.3s.1,4.6.2,6.8a2.3,2.3,0,0,1-.5,1.6,2.6,2.6,0,0,1-1.7.5l-7,.5c.1,2.1.3,4.2.5,6.3L296.4,51a.5.5,0,0,1,.6.3,1.7,1.7,0,0,1,.3,1,2.8,2.8,0,0,1-.1.9c-.2.2-.3.4-.6.4Zm13.9-20.9a1.2,1.2,0,0,1,.8-1.2,6.4,6.4,0,0,1,2.2-.6,4.9,4.9,0,0,1,2.1.3,1.4,1.4,0,0,1,.9,1.2c.2,7.5.3,15.1.5,22.6,0,.3-.2.5-.7.7l-1.7.4a4.4,4.4,0,0,1-1.7-.2c-.5-.1-.8-.3-.8-.6C298.7,49.6,298.1,42,297.6,34.5Z" transform="translate(-5.9 -11.7)"/><path class="cls-4" d="M309.4,56a1.1,1.1,0,0,1-.8-.3,1.2,1.2,0,0,1-.3-.9,3,3,0,0,1,.2-1,1.4,1.4,0,0,1,.8-.5l20.1-1.4a.9.9,0,0,1,.8.4,4.6,4.6,0,0,1,.3.9,1.7,1.7,0,0,1-.3,1,.8.8,0,0,1-.7.5Zm-.8-19.8a.5.5,0,0,1-.6-.4,1.2,1.2,0,0,1-.3-.9,1.6,1.6,0,0,1,.2-1,.5.5,0,0,1,.6-.4l19.3-1.2c.2,0,.4.2.6.4a2.9,2.9,0,0,1,.2.9,1.4,1.4,0,0,1-.2,1.1.7.7,0,0,1-.6.4l-6.5.4V37a6.9,6.9,0,0,0,2.2,5.1,12.5,12.5,0,0,0,5.4,2.7.8.8,0,0,1,.6.9,2.7,2.7,0,0,1-.3,1.2c-.3.4-.6.6-1,.5l-3.7-.9a14.1,14.1,0,0,1-3.4-1.9,5.7,5.7,0,0,1-2.3-2.6,7,7,0,0,1-3.3,3.8,28,28,0,0,1-5.8,2.7h-.3c-.3.1-.6-.1-.9-.4a2.5,2.5,0,0,1-.4-.9,1,1,0,0,1,.6-1c4.9-1.9,7.2-4.8,6.9-8.9a7.6,7.6,0,0,0-.1-1.5Z" transform="translate(-5.9 -11.7)"/><path class="cls-4" d="M334.3,53.6a.8.8,0,0,1-.7-.4,3,3,0,0,1-.4-1,2.9,2.9,0,0,1,.2-.9.7.7,0,0,1,.6-.4L349.4,49a1.1,1.1,0,0,1,.8.3,1.7,1.7,0,0,1,.3,1,1.6,1.6,0,0,1-.2,1c-.1.3-.4.4-.6.5Zm-1.1-14a9.8,9.8,0,0,1,.7-4.2,7.1,7.1,0,0,1,2.5-2.9,8.1,8.1,0,0,1,3.9-1.2,7.4,7.4,0,0,1,3.9.8,6.6,6.6,0,0,1,2.8,2.7,9.3,9.3,0,0,1,1.1,4.1,10.5,10.5,0,0,1-.7,4.4,7.3,7.3,0,0,1-2.5,3,6.5,6.5,0,0,1-3.9,1.2,7.4,7.4,0,0,1-3.9-.8,8.3,8.3,0,0,1-2.8-2.8A10.9,10.9,0,0,1,333.2,39.6Zm9.9-.4a9.7,9.7,0,0,0-.9-3.8c-.5-.9-1.1-1.4-1.8-1.3s-1.3.5-1.7,1.5a8.9,8.9,0,0,0-.4,3.8,8.7,8.7,0,0,0,.8,3.9q.8,1.5,1.8,1.5a2.2,2.2,0,0,0,1.7-1.6A11.8,11.8,0,0,0,343.1,39.2Zm7.6-7.6a1.4,1.4,0,0,1,.9-1.2,6.5,6.5,0,0,1,2.1-.5,4.6,4.6,0,0,1,2.1.4c.7.2,1,.6,1,1.1V54.1c.1.3-.2.5-.7.7a4,4,0,0,1-1.7.3,4.7,4.7,0,0,1-1.7-.2c-.5-.1-.7-.3-.8-.6Z" transform="translate(-5.9 -11.7)"/><path class="cls-4" d="M369.5,42.4a1.3,1.3,0,0,1,.1-.6q.1-.3.3-.3a23,23,0,0,0,6.7-2.5,4.3,4.3,0,0,0,2.3-3.9c-.1-1-.1-2-.1-3.1l-8.5.2a.7.7,0,0,1-.5-.4,1.7,1.7,0,0,1-.3-1,2.9,2.9,0,0,1,.2-.9.5.5,0,0,1,.5-.3l11.3-.3c1.8,0,2.7.8,2.8,2.4s0,2,.1,3a6,6,0,0,1-2,4.3,18.4,18.4,0,0,1-5.3,3.3,30.5,30.5,0,0,1-6.6,1.7.8.8,0,0,1-.7-.5A2,2,0,0,1,369.5,42.4Zm8.2,13.9a3.2,3.2,0,0,1-1.9-.4,2.1,2.1,0,0,1-.7-1.7c-.2-2.1-.3-4.3-.5-6.4s.7-2.5,2.6-2.6l13-.6a2.4,2.4,0,0,1,2.1.6A2.1,2.1,0,0,1,393,47c-.1,2.2-.2,4.4-.2,6.6a3,3,0,0,1-.6,1.7,3.8,3.8,0,0,1-1.9.6Zm9.8-9-7.5.5c.1,1.9.3,3.7.4,5.6h7.1ZM387,29.9c-.1-.5.2-.9.8-1.2a7.1,7.1,0,0,1,2.2-.5,4.6,4.6,0,0,1,2.1.4q1,.4.9,1.2c0,1.4-.1,2.8-.1,4.2l3.2.2c.2,0,.4.2.6.4a2,2,0,0,1,.2.9,3,3,0,0,1-.2,1,1.3,1.3,0,0,1-.6.5l-3.3.2-.3,5.7c0,.2-.2.5-.7.6a4.3,4.3,0,0,1-1.7.3,4.7,4.7,0,0,1-1.7-.2c-.5-.1-.7-.3-.8-.6Z" transform="translate(-5.9 -11.7)"/><path class="cls-4" d="M399.2,44.1a.9.9,0,0,1-.8-.4,1.1,1.1,0,0,1-.3-.8,1.7,1.7,0,0,1,.3-1c.2-.3.4-.5.7-.5l7.3-.3a22.6,22.6,0,0,1-.1-2.6l-4,.2a3,3,0,0,1-2.1-.5,2.2,2.2,0,0,1-.8-1.8c-.2-1.9-.3-3.7-.5-5.5a2.1,2.1,0,0,1,.8-1.9,3.7,3.7,0,0,1,2.3-.7l16.1-.4a.5.5,0,0,1,.6.4,1.7,1.7,0,0,1,.3,1,2.5,2.5,0,0,1-.2,1c-.1.3-.3.5-.5.5l-13.7.4.2,4.2,13.5-.2a.5.5,0,0,1,.5.4c.2.2.2.5.2.9a2,2,0,0,1-.2,1.1.6.6,0,0,1-.6.5l-6.2.2c0,.9-.1,1.7-.1,2.6l7.5-.3a.9.9,0,0,1,.7.3,1.7,1.7,0,0,1,.3,1,1.9,1.9,0,0,1-.3,1,.9.9,0,0,1-.8.5Zm14.6,4-13.2.5a1,1,0,0,1-.7-.4,3,3,0,0,1-.2-1,1.4,1.4,0,0,1,.1-.9,1,1,0,0,1,.7-.4l16-.5c1.8,0,2.7.8,2.7,2.5v5.9a1.1,1.1,0,0,1-.8,1,3.6,3.6,0,0,1-1.9.4,4.8,4.8,0,0,1-1.8-.3,1.1,1.1,0,0,1-.8-1C413.9,51.9,413.9,50,413.8,48.1Z" transform="translate(-5.9 -11.7)"/><path class="cls-4" d="M423.6,56.6c-.1-.1,0-.2,0-.3l1.3-1a2.7,2.7,0,0,0,.8-1.3c-.4.1-.7-.1-1.1-.4a2,2,0,0,1-.5-1.4,2.2,2.2,0,0,1,.8-1.8,2.2,2.2,0,0,1,1.9-.8,2.4,2.4,0,0,1,2,.7,2.9,2.9,0,0,1,.9,2,7.5,7.5,0,0,1-2.6,5.3,2.8,2.8,0,0,1-1.7.9,1.8,1.8,0,0,1-1.3-.6A2.1,2.1,0,0,1,423.6,56.6Z" transform="translate(-5.9 -11.7)"/><path class="cls-4" d="M441.3,38.9a16.2,16.2,0,0,1,.9-5.7,7.9,7.9,0,0,1,2.8-3.8,7.1,7.1,0,0,1,8.3-.1,7.8,7.8,0,0,1,2.9,3.7,16.1,16.1,0,0,1,1.1,5.7,14,14,0,0,1-1,5.6,7.9,7.9,0,0,1-2.8,3.8,6.6,6.6,0,0,1-4.1,1.4,7,7,0,0,1-4.2-1.3,8.3,8.3,0,0,1-2.8-3.7A14,14,0,0,1,441.3,38.9Zm10.7-.2a17.3,17.3,0,0,0-.8-5.9c-.5-1.4-1.2-2-2-2s-1.5.7-2,2a16.7,16.7,0,0,0-.6,6,17.3,17.3,0,0,0,.8,5.9c.5,1.4,1.1,2,2,2s1.4-.7,1.9-2A18.9,18.9,0,0,0,452,38.7Zm7.6-10a1.4,1.4,0,0,1,.9-1.2,5.7,5.7,0,0,1,4.2,0,1.4,1.4,0,0,1,.9,1.2l-.3,8,3.3.2a1,1,0,0,1,.5.4,1.6,1.6,0,0,1,.3.9,1.7,1.7,0,0,1-.3,1,.6.6,0,0,1-.6.5l-3.3.2-.3,11.5c0,.3-.3.5-.7.7l-1.8.2a4.7,4.7,0,0,1-1.7-.2c-.5-.2-.7-.4-.7-.6C459.8,43.9,459.7,36.3,459.6,28.7Z" transform="translate(-5.9 -11.7)"/><path class="cls-4" d="M470,38.6a16.2,16.2,0,0,1,.9-5.7,8.6,8.6,0,0,1,2.9-3.8,6.7,6.7,0,0,1,4.1-1.3,6.8,6.8,0,0,1,4.2,1.3,8.1,8.1,0,0,1,2.8,3.7,14.8,14.8,0,0,1,1,5.7,14.2,14.2,0,0,1-1,5.7,8.4,8.4,0,0,1-2.8,3.8,7.4,7.4,0,0,1-4.1,1.3,7,7,0,0,1-4.2-1.3,8.6,8.6,0,0,1-2.8-3.8A14,14,0,0,1,470,38.6Zm10.7-.1a17.3,17.3,0,0,0-.8-5.9c-.5-1.4-1.1-2.1-2-2.1s-1.5.7-1.9,2.1a17.3,17.3,0,0,0-.8,5.9,21.1,21.1,0,0,0,.8,6c.5,1.3,1.2,2,2,2s1.5-.7,2-2A22.3,22.3,0,0,0,480.7,38.5Zm7.7-9.9c0-.6.3-.9.9-1.2a5.7,5.7,0,0,1,4.2,0,1.4,1.4,0,0,1,.9,1.2c-.1,1.7-.1,3.3-.2,4.9l3.1.3c.2,0,.4.2.6.4a2.9,2.9,0,0,1,.2.9,1.7,1.7,0,0,1-.3,1c-.1.3-.3.4-.6.5h-3.1c-.1,1.6-.2,3.2-.2,4.8l3.4.3a1,1,0,0,1,.5.4,1.5,1.5,0,0,1,.2.9,3,3,0,0,1-.2,1c-.2.3-.4.5-.7.5l-3.4.2c-.1,2.2-.2,4.4-.2,6.6,0,.2-.3.5-.8.6a7.3,7.3,0,0,1-3.4,0c-.5-.2-.7-.4-.7-.7C488.5,43.7,488.4,36.2,488.4,28.6Z" transform="translate(-5.9 -11.7)"/><path class="cls-4" d="M513.7,28.7a1.3,1.3,0,0,1,.7-1.2,3,3,0,0,1,1.8-.4,3.6,3.6,0,0,1,1.9.4,1.2,1.2,0,0,1,.7,1.3c-.2,7.6-.5,15.1-.8,22.7,0,.3-.2.5-.6.7l-1.5.2a3.3,3.3,0,0,1-1.5-.3c-.5-.1-.7-.4-.7-.6V39.4l-2.3-.2h-.1c0,2.5-.1,5-.2,7.4a2.5,2.5,0,0,1-.5,1.7,2.3,2.3,0,0,1-1.6.5h-7a3.1,3.1,0,0,1-1.9-.5,2.7,2.7,0,0,1-.7-1.7l-.3-17.1a1.3,1.3,0,0,1,.7-1.2,3.8,3.8,0,0,1,1.9-.4,3.6,3.6,0,0,1,1.9.5,1.3,1.3,0,0,1,.8,1.2c-.1,2.2-.1,4.4-.1,6.6h2.3V29.2a1.2,1.2,0,0,1,.8-1.1,5.9,5.9,0,0,1,2-.5,3.4,3.4,0,0,1,1.7.5,1.1,1.1,0,0,1,.5,1.2c0,2.4-.1,4.7-.2,7h.1l2.2-.2Zm-7,17.5V38.8h-2.4c-.1,2.5-.1,4.9-.1,7.3Zm13.4-17.5a1.5,1.5,0,0,1,.7-1.2,5.4,5.4,0,0,1,1.9-.3,4.6,4.6,0,0,1,2.1.4,1.4,1.4,0,0,1,.9,1.3l-1.2,22.7c0,.3-.2.5-.7.6a2.7,2.7,0,0,1-1.6.2,3.9,3.9,0,0,1-1.6-.2c-.5-.2-.7-.4-.7-.7C520,43.9,520,36.3,520.1,28.7Z" transform="translate(-5.9 -11.7)"/><path class="cls-4" d="M539.1,38.7a.7.7,0,0,1-.6-.4,3,3,0,0,1-.2-1,2.9,2.9,0,0,1,.2-.9.7.7,0,0,1,.6-.3l8.4.2v-5l-8.1-.3a.8.8,0,0,1-.5-.5,1.4,1.4,0,0,1-.3-.9,2.4,2.4,0,0,1,.3-.9.7.7,0,0,1,.5-.4l11,.4c1.8.1,2.6.9,2.6,2.6s-.1,3-.1,4.5a12.2,12.2,0,0,1-1.9,6.6,12,12,0,0,1-5,4.7,18.9,18.9,0,0,1-7.5,2.3c-.3,0-.5-.1-.7-.5a2.1,2.1,0,0,1-.3-1.2,1.1,1.1,0,0,1,.2-.6c0-.2.2-.3.4-.3,3-.6,5.4-1.7,6.9-3.5a10.2,10.2,0,0,0,2.1-4.3Zm16.8-9.4a1.3,1.3,0,0,1,1-1.1,5.1,5.1,0,0,1,4.2.1,1.4,1.4,0,0,1,.9,1.2c-.2,2.7-.4,5.3-.5,8l3.2.4a.5.5,0,0,1,.5.4c.2.2.2.5.2.9a3.6,3.6,0,0,1-.2,1,1,1,0,0,1-.7.4h-3.2c-.3,3.8-.5,7.7-.8,11.5,0,.3-.2.6-.7.7l-1.7.2a4.8,4.8,0,0,1-1.8-.3c-.4-.2-.7-.4-.7-.7Z" transform="translate(-5.9 -11.7)"/><path class="cls-4" d="M567.1,51.9a.7.7,0,0,1-.7-.4,1.2,1.2,0,0,1-.3-.9,1.4,1.4,0,0,1,.3-.9,1,1,0,0,1,.8-.5l20.2.3a.8.8,0,0,1,.7.4,1.6,1.6,0,0,1,.2,1,1.9,1.9,0,0,1-.3,1,.8.8,0,0,1-.8.4ZM568,32a.9.9,0,0,1-.6-.4,3,3,0,0,1-.2-1,1.2,1.2,0,0,1,.3-.9.5.5,0,0,1,.6-.4l19.3.5a.5.5,0,0,1,.6.4,2.4,2.4,0,0,1,.2.9,1.5,1.5,0,0,1-.3,1c-.2.3-.4.5-.7.5l-6.5-.3c0,.5-.1,1.1-.1,1.6a7,7,0,0,0,1.8,5.3,12,12,0,0,0,5.1,3.2c.4.1.5.4.5.9a1.9,1.9,0,0,1-.4,1.2,1,1,0,0,1-1.1.4,18.9,18.9,0,0,1-3.5-1.3,11.5,11.5,0,0,1-3.3-2.1,6.9,6.9,0,0,1-2.1-2.8,6.6,6.6,0,0,1-3.5,3.5,29.4,29.4,0,0,1-6.1,2.2h-.2a1.1,1.1,0,0,1-.9-.4,2,2,0,0,1-.3-1.1.8.8,0,0,1,.6-.8c5.1-1.5,7.7-4.3,7.7-8.4V32.2Z" transform="translate(-5.9 -11.7)"/><path class="cls-4" d="M590.5,49.1a1.5,1.5,0,0,1,.1-.7.5.5,0,0,1,.4-.3c3.1-.5,5.5-1.6,7-3.4s2.4-4.2,2.6-7.3c0-1.5.1-3.1.1-4.6l-8.4-.5a.7.7,0,0,1-.5-.4,3,3,0,0,1-.2-1,2.9,2.9,0,0,1,.2-.9l.6-.3,11.3.6c1.8.1,2.6.9,2.5,2.6s-.1,3-.1,4.5a13.1,13.1,0,0,1-2,6.6,12.7,12.7,0,0,1-5.1,4.6,19.9,19.9,0,0,1-7.6,2.2c-.3,0-.5-.2-.7-.5A2.5,2.5,0,0,1,590.5,49.1ZM609.1,31c0-.6.3-.9,1-1.2a6.6,6.6,0,0,1,2.1-.3,4.6,4.6,0,0,1,2.1.5,1.2,1.2,0,0,1,.8,1.3l-.6,7.9,3.2.5a.5.5,0,0,1,.5.4c.2.2.2.5.2.9a1.7,1.7,0,0,1-.3,1,.6.6,0,0,1-.6.4h-3.3L613.3,54c0,.3-.3.5-.8.6a4.2,4.2,0,0,1-1.7.2,4.7,4.7,0,0,1-1.7-.3c-.5-.2-.7-.4-.7-.7C608.6,46.2,608.9,38.6,609.1,31Z" transform="translate(-5.9 -11.7)"/><path class="cls-4" d="M628.6,54.2a.8.8,0,0,1-.7-.4,1.6,1.6,0,0,1-.3-.9,1.8,1.8,0,0,1,.4-1,.8.8,0,0,1,.8-.4l7.2.2c0-1.8.1-3.7.2-5.6l-4.5-.2a3.8,3.8,0,0,1-1.9-.6,2.2,2.2,0,0,1-.5-1.7c0-3.6.1-7.3.1-10.9a1.2,1.2,0,0,1,.8-1.1,4.2,4.2,0,0,1,2-.4,5.9,5.9,0,0,1,2,.6,1.4,1.4,0,0,1,.8,1.3c-.1,1.1-.2,2.2-.2,3.3l9.8.5c0-1.2,0-2.3.1-3.4a1.4,1.4,0,0,1,.8-1.2,6.6,6.6,0,0,1,2.1-.3,5.3,5.3,0,0,1,1.9.5c.5.4.8.8.7,1.3l-.9,10.8a2.4,2.4,0,0,1-.7,1.6,3.4,3.4,0,0,1-1.9.4l-4.8-.3c-.2,1.9-.3,3.8-.5,5.6l7.5.3a.7.7,0,0,1,.7.4,1.5,1.5,0,0,1,.2.9,2,2,0,0,1-.3,1.1,1.2,1.2,0,0,1-.8.4Zm15.7-10.4c.1-1.5.1-2.9.2-4.3l-9.9-.4c-.1,1.4-.1,2.8-.2,4.1Z" transform="translate(-5.9 -11.7)"/><path class="cls-4" d="M655.2,53.4h-.6a2.3,2.3,0,0,1-2.1-2.6l.6-16.9c0-.5.3-.9,1-1.1a4,4,0,0,1,2.2-.3,3.5,3.5,0,0,1,1.8.5,1.2,1.2,0,0,1,.7,1.1l-.9,16.1h6.7a.5.5,0,0,1,.5.3,1.6,1.6,0,0,1,.1,1,3,3,0,0,1-.2,1c-.2.3-.4.5-.7.5ZM674,34.2a1.2,1.2,0,0,1,.8-1.1,2.9,2.9,0,0,1,1.9-.3,4.6,4.6,0,0,1,2,.5c.6.4.9.8.8,1.3-.8,7.6-1.5,15.2-2.3,22.7,0,.3-.2.5-.7.7h-1.6a5.7,5.7,0,0,1-1.6-.3c-.5-.2-.7-.5-.7-.7.3-4.1.5-8.2.7-12.3h-2.4c-.4,4.1-.7,8.1-1,12.2a.9.9,0,0,1-.7.6l-1.5.2-1.5-.4c-.4-.2-.6-.4-.6-.7.4-7.6.7-15.2,1.1-22.8a1.5,1.5,0,0,1,.7-1.2,4.8,4.8,0,0,1,1.8-.3,4.3,4.3,0,0,1,1.9.6,1.2,1.2,0,0,1,.7,1.3l-.6,7.3,2.3.2C673.7,39.2,673.8,36.7,674,34.2Z" transform="translate(-5.9 -11.7)"/><path class="cls-4" d="M691.3,57.8a1.1,1.1,0,0,1-.8-.5,2,2,0,0,1-.2-.9,1.5,1.5,0,0,1,.4-.9.8.8,0,0,1,.8-.4l20.1,1.1a.8.8,0,0,1,.7.4,1.6,1.6,0,0,1,.2,1,1.8,1.8,0,0,1-.4,1,.8.8,0,0,1-.8.4C704.6,58.5,698,58.1,691.3,57.8Zm3.4-7.9a2.9,2.9,0,0,1-2.1-.7,2.5,2.5,0,0,1-.6-1.9c.1-3.3.3-6.5.4-9.8a2,2,0,0,1,.9-1.8,3.6,3.6,0,0,1,2.4-.5l16.5,1.2c.2,0,.4.2.5.5a1.6,1.6,0,0,1,.1,1,3,3,0,0,1-.2,1,.7.7,0,0,1-.6.4l-14-.9c-.1,2.8-.3,5.6-.5,8.4L711.3,48a.7.7,0,0,1,.5.4,3.1,3.1,0,0,1,.1,1,1.7,1.7,0,0,1-.3,1c-.2.3-.4.5-.7.5Z" transform="translate(-5.9 -11.7)"/><path class="cls-4" d="M718.6,57.5a2.5,2.5,0,0,1-1.9-.6,2.5,2.5,0,0,1-.5-1.7l.3-7.8c0-1.4.8-2,2.3-1.9l7.1.5c.1-1.9.3-3.9.4-5.9l-8.5-.6c-.2,0-.4-.2-.6-.5a2.5,2.5,0,0,1-.1-1.2,2,2,0,0,1,.2-.9c.2-.2.3-.4.6-.3l11.7,1c1.8.2,2.6,1.1,2.4,2.8s-.5,4.5-.8,6.8a1.8,1.8,0,0,1-.7,1.5,2.1,2.1,0,0,1-1.7.3l-7-.6c-.2,2.2-.3,4.3-.4,6.4h10.4c.3,0,.4.1.6.4a3.1,3.1,0,0,1,.1,1,1.6,1.6,0,0,1-.3.9.6.6,0,0,1-.6.3Zm16.7-18.9a1.4,1.4,0,0,1,1-1.1,7.8,7.8,0,0,1,2.2-.3,6.5,6.5,0,0,1,2.1.6c.6.4.8.8.7,1.3l-2.7,22.7c0,.3-.3.5-.8.6a4.7,4.7,0,0,1-1.7.1,3.9,3.9,0,0,1-1.7-.4c-.5-.2-.7-.4-.7-.7C734.2,53.8,734.8,46.2,735.3,38.6Z" transform="translate(-5.9 -11.7)"/><path class="cls-4" d="M744.6,54.2a.8.8,0,0,1-.7-.4,1,1,0,0,1-.2-.9,1.7,1.7,0,0,1,.3-1,.9.9,0,0,1,.8-.4L765,53a.7.7,0,0,1,.7.4,1.6,1.6,0,0,1,.2,1,1.8,1.8,0,0,1-.4,1,.9.9,0,0,1-.8.4Zm3.5-5.3a3.4,3.4,0,0,1-2-.7,2.2,2.2,0,0,1-.6-2l.3-7.2c0-.5.4-.8,1-1a5.3,5.3,0,0,1,2.2-.3,4.8,4.8,0,0,1,1.8.6,1.3,1.3,0,0,1,.7,1.1c-.2,2.2-.3,4.5-.5,6.7l13.5,1a.7.7,0,0,1,.5.4,3.1,3.1,0,0,1,.1,1l-.3,1a.8.8,0,0,1-.7.4Zm-.5,16.3a3.4,3.4,0,0,1-2-.7,2,2,0,0,1-.6-1.9c0-1.7.1-3.4.1-5.1s.4-.8,1-1a3.1,3.1,0,0,1,1.9-.3,5.3,5.3,0,0,1,2,.5,1.4,1.4,0,0,1,.8,1.2l-.3,4.2,12.6,1a.5.5,0,0,1,.5.4,2.7,2.7,0,0,1-.3,2.2.6.6,0,0,1-.6.5Z" transform="translate(-5.9 -11.7)"/><path class="cls-4" d="M776.8,62.9c-.4,0-.7-.2-1-.7a1.3,1.3,0,0,1-.4-1.3.8.8,0,0,1,.4-.7,10.1,10.1,0,0,0,3.5-3.9,18.8,18.8,0,0,0,1.7-7c0-.4.1-.8.1-1.2l.3-4.6a1.3,1.3,0,0,1,1-1.1,4.7,4.7,0,0,1,2.1-.2,3.2,3.2,0,0,1,2,.6,1,1,0,0,1,.7,1.2c-.2,1.6-.4,3.1-.7,4.6a17.6,17.6,0,0,1-.2,1.9,18.1,18.1,0,0,0,.4,6.5,8.8,8.8,0,0,0,2.5,4c.2.1.2.3.2.6a3.1,3.1,0,0,1-.7,1.4,2.2,2.2,0,0,1-1.3.6h-.3a8.8,8.8,0,0,1-2.6-2.8,11.6,11.6,0,0,1-1.5-3.8,10.8,10.8,0,0,1-5.6,5.9A.7.7,0,0,1,776.8,62.9Zm22-18.5a1.3,1.3,0,0,1,.8-1.1,5.6,5.6,0,0,1,2-.3,6.8,6.8,0,0,1,2,.7c.6.4.8.8.7,1.3-1,7.6-2.1,15.1-3.2,22.7,0,.3-.3.5-.7.6a4.8,4.8,0,0,1-1.7,0,4.2,4.2,0,0,1-1.6-.4c-.4-.2-.6-.4-.6-.7L797.7,55l-2.2-.2L794,67c0,.2-.2.4-.7.5a2.4,2.4,0,0,1-1.5.1,3.3,3.3,0,0,1-1.5-.4c-.4-.2-.6-.4-.6-.7l2.1-22.8a1.5,1.5,0,0,1,.8-1.2,3.5,3.5,0,0,1,1.8-.2,4.7,4.7,0,0,1,1.9.6,1.3,1.3,0,0,1,.6,1.4l-.9,7.3,2,.3C798.3,49.4,798.5,46.9,798.8,44.4Z" transform="translate(-5.9 -11.7)"/><path class="cls-4" d="M806.5,67.7c-.4,0-.6-.1-.7-.4a1,1,0,0,1-.2-.9,1.8,1.8,0,0,1,.4-1,.8.8,0,0,1,.8-.3l7.2.6c.1-1.6.3-3.2.4-4.9l-4.3-.5a3.8,3.8,0,0,1-1.8-.6,2.6,2.6,0,0,1-.5-1.7l.3-4.8q.1-2.1,2.4-1.8L823,52.7c.1-1.1.2-2.3.4-3.4L809.3,48q-.4,0-.6-.6a2,2,0,0,1-.1-1.1,1.2,1.2,0,0,1,.3-.9c.1-.3.3-.4.5-.3L826.6,47a2.7,2.7,0,0,1,2,.8,2.6,2.6,0,0,1,.4,2c-.2,1.3-.5,2.7-.7,4.1a2,2,0,0,1-2.5,1.8l-12.4-1.4c-.1,1.2-.3,2.4-.4,3.6l14.1,1.5c.2,0,.4.2.5.5a2.5,2.5,0,0,1,.1.9,6.2,6.2,0,0,1-.3,1,.8.8,0,0,1-.7.4l-6.6-.8c-.2,1.6-.4,3.2-.7,4.8l7.5.7a1.2,1.2,0,0,1,.7.5,1.6,1.6,0,0,1,.1,1,2.1,2.1,0,0,1-.4,1,.8.8,0,0,1-.8.3Z" transform="translate(-5.9 -11.7)"/><path class="cls-4" d="M839.9,68.9l.6-5.1-9.1-.9a1.2,1.2,0,0,1-.7-.5,1.4,1.4,0,0,1-.1-.9,1.3,1.3,0,0,1,.4-1,1.1,1.1,0,0,1,.8-.3l20.1,2c.4.1.6.2.7.5a1.4,1.4,0,0,1,.1.9,1.2,1.2,0,0,1-.4,1,.9.9,0,0,1-.8.4l-5.5-.6-.6,5.1c0,.4-.4.6-1,.7h-2a4.8,4.8,0,0,1-1.8-.5C840.1,69.5,839.8,69.2,839.9,68.9Zm-7.3-16.6a4.3,4.3,0,0,1,1.6-2.9,8.3,8.3,0,0,1,3.8-1.7,19.2,19.2,0,0,1,5.4-.1,17.9,17.9,0,0,1,5.2,1.4,9,9,0,0,1,3.4,2.4,4.9,4.9,0,0,1,.9,3.3,4.4,4.4,0,0,1-1.7,2.9,7.8,7.8,0,0,1-3.8,1.6,16.1,16.1,0,0,1-5.4.1,15.9,15.9,0,0,1-5.2-1.3,9.6,9.6,0,0,1-3.3-2.5A4.5,4.5,0,0,1,832.6,52.3Zm1.5,21.6a3.4,3.4,0,0,1-2-.7,2.5,2.5,0,0,1-.5-2l.3-4.7c0-.5.3-.8.9-1.1a4.6,4.6,0,0,1,2-.2,5.9,5.9,0,0,1,2,.6,1.3,1.3,0,0,1,.7,1.2c-.1,1.3-.3,2.6-.4,3.9l12.6,1.3a.6.6,0,0,1,.5.5,1.7,1.7,0,0,1,0,1,2.4,2.4,0,0,1-.3,1.2.8.8,0,0,1-.7.4Zm13.5-19.8a2.5,2.5,0,0,0-1.1-2.3,6.6,6.6,0,0,0-3.4-1.3,7.1,7.1,0,0,0-3.7.5,2.5,2.5,0,0,0-1.6,1.9,2.5,2.5,0,0,0,1.1,2.3,6.1,6.1,0,0,0,3.5,1.2A6,6,0,0,0,846,56,2.3,2.3,0,0,0,847.6,54.1Z" transform="translate(-5.9 -11.7)"/><path class="cls-4" d="M863.3,74.3c-.3,0-.5-.2-.7-.5a1.3,1.3,0,0,1-.1-.9,1.3,1.3,0,0,1,.4-.9.9.9,0,0,1,.8-.4l7.2.8.6-5.6-4.5-.6a3,3,0,0,1-1.9-.7,2.4,2.4,0,0,1-.4-1.8c.3-3.2.7-6.4,1-9.6s1.1-2.4,2.9-2.1l15.5,1.9a3.1,3.1,0,0,1,1.9.9,2.6,2.6,0,0,1,.4,2c-.6,3.1-1.3,6.3-1.9,9.4a2,2,0,0,1-.9,1.6,2.6,2.6,0,0,1-1.9.3l-4.5-.6-.9,5.5,7.5.9c.3,0,.5.2.7.5a2.2,2.2,0,0,1,.1.9,3,3,0,0,1-.4,1,1.1,1.1,0,0,1-.9.4ZM881,56.2l-10-.9c-.4,2.7-.8,5.5-1.1,8.3l9.7,1.3C880.1,62,880.5,59.1,881,56.2Z" transform="translate(-5.9 -11.7)"/><path class="cls-4" d="M889.7,59c-.2,0-.4-.2-.5-.5a1.3,1.3,0,0,1-.1-.9,1.7,1.7,0,0,1,.3-1,1.1,1.1,0,0,1,.7-.3l4.8.6.3-1.8a1.2,1.2,0,0,1,1.1-.9,4.9,4.9,0,0,1,2.1-.2,3.6,3.6,0,0,1,1.9.7,1.3,1.3,0,0,1,.7,1.2l-.3,1.7,4.9.6a.8.8,0,0,1,.5.5,1.6,1.6,0,0,1,.1,1,1.3,1.3,0,0,1-.4.9.8.8,0,0,1-.7.4l-2.1-.3a8.3,8.3,0,0,1,1.1,1.5,6.4,6.4,0,0,1,.6,1.8l3,.2c.3-2.3.5-4.6.8-6.9a1.4,1.4,0,0,1,1.1-1.1,7.7,7.7,0,0,1,2.2-.1,5.2,5.2,0,0,1,2,.7,1.3,1.3,0,0,1,.7,1.4c-.9,4.7-1.9,9.5-2.9,14.2,0,.3-.3.5-.8.5h-1.7l-1.7-.4c-.4-.3-.7-.5-.6-.8s.3-2.8.5-4.2l-3.1-.5a7.1,7.1,0,0,1-1,1.4,6.5,6.5,0,0,1-2.9,1.8,11,11,0,0,1-4.1.2,8.6,8.6,0,0,1-3.8-1.3,6.4,6.4,0,0,1-2.4-2.5,5.4,5.4,0,0,1-.6-3.3,5,5,0,0,1,1.4-2.9,5.3,5.3,0,0,1,1.4-1.1Zm4.8,23a3.8,3.8,0,0,1-1.8-.8,2.3,2.3,0,0,1-.4-1.7c.2-1.8.3-3.6.5-5.3s1.1-2.4,2.9-2.2l13.1,1.6a3.1,3.1,0,0,1,1.9,1,2,2,0,0,1,.3,1.9c-.4,1.8-.7,3.6-1.1,5.3a2.7,2.7,0,0,1-.9,1.6,2.4,2.4,0,0,1-1.9.2Zm5.1-17.4a4,4,0,0,0-.4-2.5,2.3,2.3,0,0,0-1.7-1.2,2.2,2.2,0,0,0-2,.7,3.8,3.8,0,0,0-1,2.3,4.4,4.4,0,0,0,.4,2.6,2.3,2.3,0,0,0,1.7,1.1,2.2,2.2,0,0,0,1.9-.6A4.5,4.5,0,0,0,899.6,64.6Zm6,11.3-7.5-.8c-.1,1.5-.2,2.9-.4,4.4l7,1.1Z" transform="translate(-5.9 -11.7)"/><path class="cls-4" d="M919.4,72c-1.8-.1-2.7-1.1-2.5-2.8s.7-5.9,1-8.9a2,2,0,0,1,1-1.7,3.8,3.8,0,0,1,2.5-.4l10.9,1.5a.6.6,0,0,1,.6.5,4,4,0,0,1,0,1.1,4.6,4.6,0,0,1-.3.9.7.7,0,0,1-.6.4l-8.5-1c-.4,2.5-.7,4.9-1,7.4l9.1.9c.3,0,.4.1.5.4a1.4,1.4,0,0,1,0,.9,2,2,0,0,1-.3,1.1,1.3,1.3,0,0,1-.7.4Zm2.5,13.8a3,3,0,0,1-1.8-.8,2.2,2.2,0,0,1-.3-1.7l.6-6.5q.3-2.5,3-2.1l13,1.7a2.9,2.9,0,0,1,2,.9,3.2,3.2,0,0,1,.3,2c-.5,2.2-1,4.3-1.4,6.5a2.7,2.7,0,0,1-.9,1.6,2.9,2.9,0,0,1-1.9.2Zm11.4-7.2-7.6-.9c-.2,1.9-.3,3.8-.5,5.7l6.9,1.1Zm2.6-17.4a1.1,1.1,0,0,1,1-1,4.1,4.1,0,0,1,2.2-.1,4.8,4.8,0,0,1,2.1.7c.5.4.8.8.6,1.4l-.9,4.1,3.2.8a.8.8,0,0,1,.5.5,1.4,1.4,0,0,1,0,.9,1.8,1.8,0,0,1-.4,1c-.2.2-.4.4-.7.3l-3.3-.3L939,75.1c0,.3-.3.4-.8.5a5.4,5.4,0,0,1-1.8,0l-1.6-.5c-.5-.2-.7-.5-.7-.8Z" transform="translate(-5.9 -11.7)"/><path class="cls-4" d="M953.7,87.9a2.8,2.8,0,0,1,1.2-2,3.2,3.2,0,0,1,2.3-.6,2.7,2.7,0,0,1,2,1.2,2.9,2.9,0,0,1,.6,2.4,2.8,2.8,0,0,1-1.2,2,2.8,2.8,0,0,1-2.3.5,2.8,2.8,0,0,1-2.1-1.2A2.8,2.8,0,0,1,953.7,87.9Zm1.6-6.9c.8-5.6,1.5-11.3,2.3-16.9a1.3,1.3,0,0,1,.9-1,3.5,3.5,0,0,1,2.1-.1,5.2,5.2,0,0,1,2.1.7,1.4,1.4,0,0,1,.5,1.3l-3,16.8a1.3,1.3,0,0,1-.8,1,3.5,3.5,0,0,1-1.8.1,3,3,0,0,1-1.8-.7A1.1,1.1,0,0,1,955.3,81Z" transform="translate(-5.9 -11.7)"/></g><path class="cls-5" d="M24.7,66.6c-.4-1.5-.7-2.9-1-4.3a1.2,1.2,0,0,1,.4-1.3,6.3,6.3,0,0,1,2.2-.7h2.2a1.2,1.2,0,0,1,.8,1.1l.3,4.4a1.4,1.4,0,0,1-.4,1.3,3.8,3.8,0,0,1-1.8.6,4,4,0,0,1-1.9,0A1.4,1.4,0,0,1,24.7,66.6Zm8-1.2-.9-4.3a1,1,0,0,1,.4-1.3,4.3,4.3,0,0,1,2.1-.7,3.9,3.9,0,0,1,2.2,0,1.1,1.1,0,0,1,.8,1.1c.2,1.5.3,2.9.4,4.4a1.4,1.4,0,0,1-.5,1.3,3.1,3.1,0,0,1-1.8.6H33.6A1.7,1.7,0,0,1,32.7,65.4Z" transform="translate(-5.9 -11.7)"/><path class="cls-5" d="M47.7,79.5c-1.8.4-2.8-.2-3.1-1.9L41.9,61.1c-.1-.5.1-.9.7-1.3a6.5,6.5,0,0,1,2.1-.7,4,4,0,0,1,1.9.1,1.3,1.3,0,0,1,.9,1c.8,5.2,1.6,10.5,2.3,15.7l10-1.9a.5.5,0,0,1,.5.3,1.1,1.1,0,0,1,.3.8,2,2,0,0,1,0,1.1.9.9,0,0,1-.6.6ZM59.5,57.7c-.1-.5.1-.9.7-1.3a6.5,6.5,0,0,1,2.1-.7,4.8,4.8,0,0,1,2.1.1,1.4,1.4,0,0,1,1.1,1.1c.2,2.6.5,5.2.7,7.9l3.3-.2a.9.9,0,0,1,.6.3,1.4,1.4,0,0,1,.3.9,1.7,1.7,0,0,1-.1,1c-.1.3-.3.5-.5.5l-3.2.6c.3,3.8.7,7.6,1.1,11.4a.9.9,0,0,1-.6.8,6.9,6.9,0,0,1-1.7.5H63.6c-.5-.1-.7-.3-.8-.6Z" transform="translate(-5.9 -11.7)"/><path class="cls-5" d="M74.8,76.8a1.1,1.1,0,0,1-.8-.3,1.8,1.8,0,0,1-.4-1,1.4,1.4,0,0,1,.1-.9,1,1,0,0,1,.6-.5l15.2-3.2a1.1,1.1,0,0,1,.8.3,3,3,0,0,1,.4,1,2.5,2.5,0,0,1-.1.9,1.3,1.3,0,0,1-.7.6ZM72.5,63.1a8.7,8.7,0,0,1,.4-4.3,6.8,6.8,0,0,1,2.2-3.1,7.6,7.6,0,0,1,3.7-1.5,7.5,7.5,0,0,1,4,.5,6,6,0,0,1,3,2.4,8.4,8.4,0,0,1,1.5,4,8.7,8.7,0,0,1-.4,4.3,6.9,6.9,0,0,1-2.2,3.3,8,8,0,0,1-7.7,1,7.2,7.2,0,0,1-3-2.5A9.2,9.2,0,0,1,72.5,63.1Zm9.8-1.4a8.5,8.5,0,0,0-1.2-3.6,1.9,1.9,0,0,0-1.9-1.2c-.7.1-1.2.7-1.5,1.7a9.2,9.2,0,0,0-.2,3.8,9,9,0,0,0,1.2,3.8c.6,1,1.2,1.4,1.9,1.3s1.2-.7,1.5-1.7A9,9,0,0,0,82.3,61.7Zm7-8.1c-.1-.5.2-.9.8-1.3a7.7,7.7,0,0,1,2-.7,5.3,5.3,0,0,1,2.2.2,1.3,1.3,0,0,1,1,1.1c.7,7.5,1.4,15,2,22.5.1.2-.1.5-.6.7a6.9,6.9,0,0,1-1.7.5H93.3c-.5-.1-.8-.2-.8-.5C91.4,68.5,90.4,61.1,89.3,53.6Z" transform="translate(-5.9 -11.7)"/><path class="cls-5" d="M126.6,49a1.3,1.3,0,0,1,.8-1.3,6.5,6.5,0,0,1,2.1-.7,4.7,4.7,0,0,1,2.1.2,1.4,1.4,0,0,1,1.1,1.1c.5,7.5,1.1,15,1.7,22.5,0,.3-.2.5-.6.7a4.8,4.8,0,0,1-1.7.5,5.1,5.1,0,0,1-1.8-.1c-.5-.1-.8-.3-.8-.5l-.9-6.9-3.8.3a8.4,8.4,0,0,1-2.4,4,5.9,5.9,0,0,1-3.9,1.8,6.3,6.3,0,0,1-4.3-.8,8.7,8.7,0,0,1-3.3-3.3,14.3,14.3,0,0,1-1.7-5.5,17.6,17.6,0,0,1,.3-5.7,8.4,8.4,0,0,1,2.4-4,6.6,6.6,0,0,1,4-1.9,7.2,7.2,0,0,1,4.3.9,7.6,7.6,0,0,1,3,2.9h.2l3.7-.8C126.9,51.3,126.8,50.1,126.6,49Zm-6.7,10.7a19.1,19.1,0,0,0-1.5-5.8c-.6-1.2-1.4-1.8-2.2-1.7s-1.4.8-1.7,2.2a16.9,16.9,0,0,0,0,6,18.8,18.8,0,0,0,1.4,5.7c.7,1.3,1.4,1.9,2.2,1.8s1.4-.8,1.7-2.2A16.4,16.4,0,0,0,119.9,59.7Zm5.2-.6a14.3,14.3,0,0,1,.1,2.9l3-.6c-.2-2-.5-3.9-.7-5.9l-3.1.3A16,16,0,0,1,125.1,59.1Z" transform="translate(-5.9 -11.7)"/><path class="cls-5" d="M138.9,62.8a.7.7,0,0,1-.8-.2,1.5,1.5,0,0,1-.4-.9,1.6,1.6,0,0,1,.2-1,.8.8,0,0,1,.7-.5l20.1-2.6a1.1,1.1,0,0,1,.8.3,1.9,1.9,0,0,1,.3.9,2.2,2.2,0,0,1-.2,1.1c-.1.3-.4.4-.7.5Zm2.8-4.9a2.6,2.6,0,0,1-1.9-.3,2.3,2.3,0,0,1-.9-1.6l-.6-3.1c-.3-1.3.4-2.1,1.9-2.3l11.9-1.3a14.9,14.9,0,0,1-.2-2.1l-13.4,1.7a.8.8,0,0,1-.7-.4,3,3,0,0,1-.4-1,2.2,2.2,0,0,1,.1-.9c.1-.3.2-.4.5-.4l16.6-1.9c1.9-.2,2.9.5,2.9,2.1s.1,1.9.1,2.8a2.5,2.5,0,0,1-.5,1.6,2.7,2.7,0,0,1-1.6.6l-11.8,1.3.3,2.1,13.4-1.6a.7.7,0,0,1,.6.4,1.6,1.6,0,0,1,.3.9,1.6,1.6,0,0,1-.1,1,.6.6,0,0,1-.6.5ZM144,72.7a2.9,2.9,0,0,1-1.9-.3,2,2,0,0,1-.8-1.5c-.2-1.4-.5-2.8-.7-4.2a1.9,1.9,0,0,1,.4-1.8,2.6,2.6,0,0,1,1.9-.9l13.2-1.7a2.8,2.8,0,0,1,2.1.4,2.5,2.5,0,0,1,.8,1.8c0,1.5.1,2.9.2,4.4a2.3,2.3,0,0,1-.5,1.7,3,3,0,0,1-1.8.7Zm9.6-7.5-7.7,1.1c.2,1.1.5,2.2.7,3.4l7.3-.8Z" transform="translate(-5.9 -11.7)"/><path class="cls-5" d="M164.7,57.2a3.8,3.8,0,0,1-2-.2,2.4,2.4,0,0,1-.8-1.6l-1.5-10a1.3,1.3,0,0,1,.7-1.2,2.9,2.9,0,0,1,1.9-.6,3.6,3.6,0,0,1,2.1.2,1.3,1.3,0,0,1,.9,1.1l.3,3.1,4.1-.5c-.1-1.1-.3-2.2-.4-3.4a1.2,1.2,0,0,1,.7-1.2,4.7,4.7,0,0,1,1.9-.7,4,4,0,0,1,2,.3,1.1,1.1,0,0,1,.9,1.1c.3,3.4.5,6.8.7,10.2a2.4,2.4,0,0,1-.4,1.8,3.8,3.8,0,0,1-1.9.6Zm2.7,7.3a4.4,4.4,0,0,1,.8-3.2,7.3,7.3,0,0,1,3-2.4,15.4,15.4,0,0,1,4.7-1.2,14.9,14.9,0,0,1,4.8.2,6.8,6.8,0,0,1,3.4,1.7,4.7,4.7,0,0,1,1.4,3,4.3,4.3,0,0,1-.8,3.3,6.7,6.7,0,0,1-3,2.3,14.7,14.7,0,0,1-4.6,1.2,14.9,14.9,0,0,1-4.8-.2,6.4,6.4,0,0,1-3.4-1.7A4.4,4.4,0,0,1,167.4,64.5Zm3.8-10.6c-.2-1.3-.3-2.5-.5-3.8l-4.1.6.3,3.6Zm8.9,9.3a2.7,2.7,0,0,0-1.3-2.1,3.7,3.7,0,0,0-2.6-.5,3.4,3.4,0,0,0-2.5,1.1,2.3,2.3,0,0,0-.8,2.2,2.8,2.8,0,0,0,1.2,2.1,3.9,3.9,0,0,0,2.7.5,3.6,3.6,0,0,0,2.5-1.1A2.5,2.5,0,0,0,180.1,63.2Zm-1.8-20.3a1.2,1.2,0,0,1,.8-1.2,6.5,6.5,0,0,1,2.1-.6,4.1,4.1,0,0,1,2.2.2,1.4,1.4,0,0,1,1,1.1c0,1.4,0,2.8.1,4.2h3.2a.6.6,0,0,1,.6.3,1.6,1.6,0,0,1,.3.9,3.1,3.1,0,0,1-.1,1c-.2.3-.4.5-.6.5l-3.3.5c0,1.9.1,3.8.2,5.6s-.3.5-.7.7a4.7,4.7,0,0,1-1.7.4,4.8,4.8,0,0,1-1.7,0c-.5-.1-.8-.3-.8-.6C179.4,51.6,178.8,47.3,178.3,42.9Z" transform="translate(-5.9 -11.7)"/><path class="cls-5" d="M189.7,46l-.6-.3a1.6,1.6,0,0,1-.3-.9,1.6,1.6,0,0,1,.1-1c.1-.3.3-.4.6-.5l4.8-.5c0-.6-.1-1.2-.1-1.8a1.2,1.2,0,0,1,.8-1.1,4.8,4.8,0,0,1,2.1-.7,6.5,6.5,0,0,1,2,.2,1.6,1.6,0,0,1,.9,1.1c0,.5.1,1.1.1,1.7l4.9-.5a.7.7,0,0,1,.6.3,1.2,1.2,0,0,1,.3.9,1.6,1.6,0,0,1-.1,1c-.2.3-.4.5-.6.5l-2.2.3a5.3,5.3,0,0,1,1.4,1.1,4.6,4.6,0,0,1,1.3,2.9,4.9,4.9,0,0,1-.7,3.2,6.4,6.4,0,0,1-2.5,2.4,9.4,9.4,0,0,1-3.9,1.2,10.3,10.3,0,0,1-4-.4,5.9,5.9,0,0,1-2.9-1.9,5.1,5.1,0,0,1-1.3-3.1,4.5,4.5,0,0,1,.7-3,3.5,3.5,0,0,1,1.1-1.3Zm18.5,12.6L196,59.9a.9.9,0,0,1-.7-.3,1.6,1.6,0,0,1-.3-.9,2.2,2.2,0,0,1,.1-.9c.1-.3.3-.4.6-.5l15-1.5a3.1,3.1,0,0,1,2,.5,2.2,2.2,0,0,1,.8,1.8l.3,6.2a1.3,1.3,0,0,1-.7,1.1,4.8,4.8,0,0,1-1.8.5,3.9,3.9,0,0,1-1.9-.2,1.1,1.1,0,0,1-.8-1C208.4,62.7,208.3,60.7,208.2,58.6Zm-7.6-9.4a3.8,3.8,0,0,0-1-2.4,2.3,2.3,0,0,0-3.6.4,3.9,3.9,0,0,0-.5,2.5,4,4,0,0,0,.9,2.3,2.2,2.2,0,0,0,2,.7,2,2,0,0,0,1.7-1.1A3.6,3.6,0,0,0,200.6,49.2Zm6.4-9a1.4,1.4,0,0,1,.8-1.3,6.5,6.5,0,0,1,2.1-.6,5.3,5.3,0,0,1,2.2.2c.6.3,1,.7,1,1.2,0,2,.1,4,.1,6.1h3.4a.5.5,0,0,1,.5.3,1.2,1.2,0,0,1,.3.9,3.4,3.4,0,0,1-.1,1c-.2.3-.4.5-.6.5l-3.4.5c0,1.6.1,3.3.2,4.9s-.3.5-.8.7a6.2,6.2,0,0,1-1.6.4,4.6,4.6,0,0,1-1.7-.1q-.7-.1-.9-.6Z" transform="translate(-5.9 -11.7)"/><path class="cls-5" d="M220.5,43c-.2-1.4-.4-2.9-.7-4.4a1.1,1.1,0,0,1,.5-1.2,5.3,5.3,0,0,1,2.2-.6,6.5,6.5,0,0,1,2.2.2,1.1,1.1,0,0,1,.7,1.2c.1,1.4.1,2.9.1,4.4a1.7,1.7,0,0,1-.5,1.3,5.6,5.6,0,0,1-1.9.5,4.4,4.4,0,0,1-1.8-.2A1.5,1.5,0,0,1,220.5,43Zm8.1-.7c-.2-1.4-.4-2.9-.7-4.4a1,1,0,0,1,.6-1.2,4.4,4.4,0,0,1,2.1-.6,6.2,6.2,0,0,1,2.2.2,1.2,1.2,0,0,1,.8,1.2v4.4a1.7,1.7,0,0,1-.5,1.3,5.6,5.6,0,0,1-1.9.5,4.4,4.4,0,0,1-1.8-.2A1.5,1.5,0,0,1,228.6,42.3Z" transform="translate(-5.9 -11.7)"/><path class="cls-5" d="M249.7,57.2a1.1,1.1,0,0,1-1-.4,1.7,1.7,0,0,1-.6-1.1.8.8,0,0,1,.3-.7,9.7,9.7,0,0,0,4.4-9.6c-.2-2.6-.4-5.3-.7-7.9a1.6,1.6,0,0,1,.8-1.3,7,7,0,0,1,2.3-.6,4.5,4.5,0,0,1,2.4.3,1.4,1.4,0,0,1,1,1.1c.1,2.6.3,5.3.5,8a10.2,10.2,0,0,0,1.7,5.5,10.4,10.4,0,0,0,4.1,3.3.7.7,0,0,1,.4.5,1.9,1.9,0,0,1-.4,1.2,1.4,1.4,0,0,1-1,.6c-.2.1-.3,0-.4,0a13.3,13.3,0,0,1-4.2-2.5,9.1,9.1,0,0,1-3-3.7A9.5,9.5,0,0,1,254,54a12.4,12.4,0,0,1-3.9,3.1Zm16-21.6a1.4,1.4,0,0,1,.9-1.2,6.5,6.5,0,0,1,2.1-.6,3.6,3.6,0,0,1,2.1.3,1.3,1.3,0,0,1,1,1.1c.2,7.6.5,15.1.7,22.7,0,.2-.2.5-.7.7a4.3,4.3,0,0,1-1.7.3,4.6,4.6,0,0,1-1.7-.1c-.5-.1-.8-.3-.8-.6C267,50.7,266.4,43.1,265.7,35.6Z" transform="translate(-5.9 -11.7)"/><path class="cls-5" d="M280.6,54.7a2.2,2.2,0,0,1-1.9-.4,2.2,2.2,0,0,1-.8-1.6c-.2-2.6-.5-5.2-.8-7.7s.5-2.1,2-2.2l7.1-.5c-.1-1.9-.2-3.9-.4-5.8l-8.5.6a.8.8,0,0,1-.7-.4,4.2,4.2,0,0,1-.3-1.2,2.5,2.5,0,0,1,.1-.9.5.5,0,0,1,.5-.4l11.8-.6c1.8-.1,2.8.7,2.8,2.3s.1,4.6.2,6.8a2.3,2.3,0,0,1-.5,1.6,2.5,2.5,0,0,1-1.7.5l-7,.5c.1,2.1.3,4.2.5,6.3l10.3-1.4c.3-.1.5.1.7.3a2.9,2.9,0,0,1,.2.9,1.3,1.3,0,0,1-.1.9c-.1.3-.3.4-.6.5Zm13.9-21a1.2,1.2,0,0,1,.8-1.2,4.8,4.8,0,0,1,2.2-.6,3.7,3.7,0,0,1,2.1.3,1.4,1.4,0,0,1,.9,1.2c.2,7.5.4,15.1.5,22.6,0,.3-.2.5-.7.7a4,4,0,0,1-1.7.3,4.7,4.7,0,0,1-1.7-.1c-.5-.1-.8-.3-.8-.6C295.6,48.8,295,41.2,294.5,33.7Z" transform="translate(-5.9 -11.7)"/><path class="cls-5" d="M306.3,55.2a.8.8,0,0,1-.7-.3,3.6,3.6,0,0,1-.4-.9,1.7,1.7,0,0,1,.3-1c.1-.3.4-.4.7-.5l20.2-1.4a.9.9,0,0,1,.7.3,1.6,1.6,0,0,1,.3.9,3.6,3.6,0,0,1-.2,1.1,1.4,1.4,0,0,1-.8.5Zm-.8-19.9a.5.5,0,0,1-.6-.3,1.6,1.6,0,0,1-.3-.9,1.6,1.6,0,0,1,.2-1,.5.5,0,0,1,.6-.4l19.3-1.2a.7.7,0,0,1,.6.4,2,2,0,0,1,.2.9,1.2,1.2,0,0,1-.2,1,.6.6,0,0,1-.6.5l-6.5.3v1.5a6.9,6.9,0,0,0,2.3,5.2,11.5,11.5,0,0,0,5.4,2.7c.3,0,.5.3.5.8a1.9,1.9,0,0,1-.3,1.3,1.1,1.1,0,0,1-1,.5,16.1,16.1,0,0,1-3.6-1,10.6,10.6,0,0,1-3.5-1.8,6.3,6.3,0,0,1-2.3-2.6,6.9,6.9,0,0,1-3.3,3.8,25.8,25.8,0,0,1-5.8,2.7h-.3a.9.9,0,0,1-.8-.4,1.3,1.3,0,0,1-.4-1,.8.8,0,0,1,.5-.9c4.9-1.9,7.2-4.9,7-8.9-.1-.5-.1-1-.2-1.5Z" transform="translate(-5.9 -11.7)"/><path class="cls-5" d="M331.3,52.7a.7.7,0,0,1-.8-.3,1.9,1.9,0,0,1-.3-1,1.3,1.3,0,0,1,.1-.9.7.7,0,0,1,.6-.4l15.5-2a.8.8,0,0,1,.7.4,2.3,2.3,0,0,1,.4,1,1.4,1.4,0,0,1-.3.9.6.6,0,0,1-.6.5Zm-1.2-13.9a9.3,9.3,0,0,1,.7-4.2,7.1,7.1,0,0,1,2.5-2.9,6.5,6.5,0,0,1,3.9-1.2,7.2,7.2,0,0,1,3.9.8,6.6,6.6,0,0,1,2.8,2.7,7.6,7.6,0,0,1,1.1,4.1,8.7,8.7,0,0,1-.7,4.3,7.6,7.6,0,0,1-2.5,3.1,8.1,8.1,0,0,1-3.8,1.2,6.8,6.8,0,0,1-4-.9,6.7,6.7,0,0,1-2.7-2.8A9.4,9.4,0,0,1,330.1,38.8Zm9.9-.5a9.1,9.1,0,0,0-.9-3.7c-.5-.9-1.1-1.4-1.8-1.4s-1.2.6-1.6,1.6a8.1,8.1,0,0,0-.5,3.7,8.9,8.9,0,0,0,.8,4c.5,1,1.1,1.5,1.8,1.4s1.3-.5,1.7-1.6A9.5,9.5,0,0,0,340,38.3Zm7.6-7.5a1.4,1.4,0,0,1,.9-1.2,6.5,6.5,0,0,1,2.1-.6,4.6,4.6,0,0,1,2.1.4c.7.3,1,.7,1,1.2,0,7.5,0,15.1.1,22.6,0,.3-.2.6-.7.7a4.7,4.7,0,0,1-1.7.3,5.1,5.1,0,0,1-1.8-.1c-.5-.2-.7-.4-.7-.6C348.5,45.9,348.1,38.3,347.6,30.8Z" transform="translate(-5.9 -11.7)"/><path class="cls-5" d="M366.4,41.5a1.3,1.3,0,0,1,.1-.6c.1-.2.2-.3.4-.3a23.4,23.4,0,0,0,6.6-2.5,4,4,0,0,0,2.3-3.9c0-1-.1-2-.1-3h-8.4a.7.7,0,0,1-.6-.4,1.7,1.7,0,0,1-.3-1,1.9,1.9,0,0,1,.2-.8.5.5,0,0,1,.5-.4l11.3-.3c1.8,0,2.7.8,2.8,2.4s.1,2,.1,3a5.6,5.6,0,0,1-2,4.3,17.1,17.1,0,0,1-5.3,3.3,29.7,29.7,0,0,1-6.5,1.7c-.3.1-.5-.1-.7-.4A1.9,1.9,0,0,1,366.4,41.5Zm8.2,13.9a2.7,2.7,0,0,1-1.9-.4,2.4,2.4,0,0,1-.7-1.6c-.1-2.2-.3-4.3-.5-6.5s.8-2.5,2.6-2.6l13.1-.6a2.3,2.3,0,0,1,2.7,2.4c-.1,2.2-.1,4.4-.2,6.6a2.1,2.1,0,0,1-.6,1.7,3.8,3.8,0,0,1-1.8.6Zm9.9-9-7.6.5c.2,1.9.3,3.7.5,5.6h7C384.4,50.4,384.4,48.4,384.5,46.4ZM383.9,29a1.4,1.4,0,0,1,.9-1.2,6.5,6.5,0,0,1,2.1-.5,5.4,5.4,0,0,1,2.2.4,1.4,1.4,0,0,1,.9,1.2c-.1,1.4-.1,2.8-.2,4.2l3.2.2c.3,0,.4.2.6.4a2,2,0,0,1,.2.9,1.8,1.8,0,0,1-.2,1c-.1.3-.3.4-.6.5l-3.3.2c-.1,1.9-.1,3.8-.2,5.6s-.3.6-.8.7a3.8,3.8,0,0,1-1.6.3,5,5,0,0,1-1.8-.2c-.4-.1-.7-.3-.7-.6C384.3,37.7,384.1,33.4,383.9,29Z" transform="translate(-5.9 -11.7)"/><path class="cls-5" d="M396.1,43.2a.7.7,0,0,1-.7-.4,1.2,1.2,0,0,1-.3-.9,1.3,1.3,0,0,1,.2-.9,1,1,0,0,1,.8-.5l7.2-.3c0-.9-.1-1.7-.1-2.6l-4,.2a3.3,3.3,0,0,1-2.1-.5,2.5,2.5,0,0,1-.8-1.8c-.1-1.9-.3-3.7-.4-5.5a1.9,1.9,0,0,1,.7-1.9,3.2,3.2,0,0,1,2.3-.7l16.2-.5c.2,0,.4.2.6.5a3,3,0,0,1,.2,1,1.6,1.6,0,0,1-.2,1,.5.5,0,0,1-.5.4l-13.6.5c0,1.3.1,2.7.2,4.1h13.4a.6.6,0,0,1,.6.3,3,3,0,0,1,.2,1,3.6,3.6,0,0,1-.2,1.1.7.7,0,0,1-.6.4l-6.3.3v2.5l7.4-.3a.7.7,0,0,1,.7.4,1.2,1.2,0,0,1,.3.9A2,2,0,0,1,417,42a.7.7,0,0,1-.7.4Zm14.7,4-13.3.4a.5.5,0,0,1-.6-.3,1.7,1.7,0,0,1-.3-1,2.9,2.9,0,0,1,.2-.9.7.7,0,0,1,.6-.4l16-.5q2.7,0,2.7,2.4v5.9c0,.5-.2.8-.8,1.1a4.8,4.8,0,0,1-1.8.4,4.8,4.8,0,0,1-1.8-.3c-.6-.3-.8-.6-.8-1.1S410.8,49.1,410.8,47.2Z" transform="translate(-5.9 -11.7)"/><path class="cls-5" d="M420.5,55.6v-.2l1.4-1.1a2.8,2.8,0,0,0,.8-1.2,1.5,1.5,0,0,1-1.1-.4,2.2,2.2,0,0,1-.6-1.4,2.6,2.6,0,0,1,.8-1.9,2.8,2.8,0,0,1,2-.8,3,3,0,0,1,2,.8,2.6,2.6,0,0,1,.8,1.9,6.7,6.7,0,0,1-.7,3.1,7.1,7.1,0,0,1-1.8,2.3,3,3,0,0,1-1.8.9,1.7,1.7,0,0,1-1.2-.6A2,2,0,0,1,420.5,55.6Z" transform="translate(-5.9 -11.7)"/><path class="cls-5" d="M438.2,37.9a14.8,14.8,0,0,1,1-5.7,8.3,8.3,0,0,1,2.7-3.8,7.5,7.5,0,0,1,4.2-1.4,7,7,0,0,1,4.2,1.3,9.1,9.1,0,0,1,2.9,3.7,17.6,17.6,0,0,1,.1,11.4,9.2,9.2,0,0,1-2.8,3.8,7.5,7.5,0,0,1-8.3.1,9.1,9.1,0,0,1-2.9-3.7A16.1,16.1,0,0,1,438.2,37.9Zm10.7-.1a18.4,18.4,0,0,0-.8-6c-.5-1.3-1.1-2-2-2s-1.5.7-1.9,2.1a17.8,17.8,0,0,0-.7,5.9,18.4,18.4,0,0,0,.8,6c.5,1.3,1.2,2,2,2s1.5-.7,2-2.1A18.3,18.3,0,0,0,448.9,37.8Zm7.6-10.1a1.4,1.4,0,0,1,.9-1.2,7.2,7.2,0,0,1,2.2-.4,4.6,4.6,0,0,1,2.1.4,1.4,1.4,0,0,1,.9,1.2l-.3,8,3.3.3a.5.5,0,0,1,.5.4,2,2,0,0,1,.2.9,2.9,2.9,0,0,1-.2.9c-.2.3-.4.5-.7.5l-3.2.2-.3,11.5c0,.3-.3.6-.8.7a4.3,4.3,0,0,1-1.7.3,4.7,4.7,0,0,1-1.7-.3c-.5-.1-.7-.3-.7-.6C456.8,42.9,456.7,35.3,456.5,27.7Z" transform="translate(-5.9 -11.7)"/><path class="cls-5" d="M466.9,37.6a14.2,14.2,0,0,1,1-5.7,9.2,9.2,0,0,1,2.8-3.8,6.8,6.8,0,0,1,4.2-1.3,7,7,0,0,1,4.2,1.3,8.9,8.9,0,0,1,2.8,3.7,14.8,14.8,0,0,1,1,5.7,14.2,14.2,0,0,1-1,5.7,8.4,8.4,0,0,1-2.8,3.8,7.4,7.4,0,0,1-4.1,1.3,6.8,6.8,0,0,1-4.2-1.3,7.9,7.9,0,0,1-2.8-3.8A15.9,15.9,0,0,1,466.9,37.6Zm10.7-.1a17.8,17.8,0,0,0-.7-5.9c-.5-1.4-1.2-2-2-2s-1.5.6-2,2a18.5,18.5,0,0,0-.7,6,17.8,17.8,0,0,0,.8,5.9c.5,1.4,1.1,2,2,2s1.4-.7,1.9-2A18.9,18.9,0,0,0,477.6,37.5Zm7.7-9.9c0-.6.3-.9.9-1.2a5.1,5.1,0,0,1,2.2-.4,4.6,4.6,0,0,1,2.1.4,1.4,1.4,0,0,1,.9,1.2c-.1,1.6-.2,3.3-.2,4.9l3.1.3a.7.7,0,0,1,.5.4,1.5,1.5,0,0,1,.2.9,3,3,0,0,1-.2,1,1.2,1.2,0,0,1-.7.5H491c0,1.6-.1,3.2-.2,4.8l3.5.3a.7.7,0,0,1,.5.4,2.9,2.9,0,0,1,.2.9,3,3,0,0,1-.2,1,1.2,1.2,0,0,1-.7.5h-3.4l-.3,6.6c0,.3-.2.6-.7.7a4.7,4.7,0,0,1-1.7.2,4.2,4.2,0,0,1-1.7-.2c-.5-.2-.8-.4-.8-.7C485.5,42.7,485.4,35.2,485.3,27.6Z" transform="translate(-5.9 -11.7)"/><path class="cls-5" d="M510.7,27.6a1.3,1.3,0,0,1,.7-1.2,5.1,5.1,0,0,1,3.7.1,1.3,1.3,0,0,1,.7,1.2c-.3,7.6-.5,15.2-.8,22.8a.7.7,0,0,1-.6.6,4,4,0,0,1-1.5.3,5.7,5.7,0,0,1-1.5-.3c-.5-.2-.7-.4-.7-.7V38.3h-2.4c-.1,2.5-.1,4.9-.2,7.4a2.6,2.6,0,0,1-.5,1.7,2.3,2.3,0,0,1-1.6.5h-7.1a2.7,2.7,0,0,1-1.9-.5,1.8,1.8,0,0,1-.6-1.6l-.3-17.1a1.3,1.3,0,0,1,.7-1.2,4.7,4.7,0,0,1,3.8,0,1.4,1.4,0,0,1,.7,1.3v6.5h2.3V28.2a1.4,1.4,0,0,1,.8-1.2,5.4,5.4,0,0,1,2-.4,2.9,2.9,0,0,1,1.7.5,1.5,1.5,0,0,1,.5,1.2c-.1,2.3-.1,4.7-.2,7h.1l2.2-.2Zm-7.1,17.5V37.8h-2.4v7.3Zm13.5-17.4a1.3,1.3,0,0,1,.7-1.2,4.9,4.9,0,0,1,1.9-.4,4.6,4.6,0,0,1,2.1.5c.6.3.9.7.8,1.2-.3,7.6-.7,15.2-1.1,22.7,0,.3-.2.6-.7.7a3.9,3.9,0,0,1-1.6.2l-1.6-.2c-.5-.2-.7-.4-.7-.7C517,42.9,517,35.3,517.1,27.7Z" transform="translate(-5.9 -11.7)"/><path class="cls-5" d="M536,37.6a.5.5,0,0,1-.5-.4,1.5,1.5,0,0,1-.2-.9,2,2,0,0,1,.2-.9.5.5,0,0,1,.6-.4l8.4.2v-.4c0-1.5,0-3,.1-4.6l-8.1-.3c-.2,0-.4-.2-.6-.4a3,3,0,0,1-.2-1,1.9,1.9,0,0,1,.2-.8.7.7,0,0,1,.6-.4l11,.4a2.3,2.3,0,0,1,2.6,2.5c0,1.5-.1,3-.1,4.5a13.1,13.1,0,0,1-1.9,6.6,12.2,12.2,0,0,1-5,4.8,20.7,20.7,0,0,1-7.5,2.3c-.3,0-.5-.2-.7-.5a2.7,2.7,0,0,1-.3-1.2,1.4,1.4,0,0,1,.2-.7c0-.2.2-.3.4-.3a11.4,11.4,0,0,0,6.9-3.5,9,9,0,0,0,2-4.3Zm16.9-9.4c0-.5.3-.9,1-1.1a5.1,5.1,0,0,1,4.2.1,1.4,1.4,0,0,1,.9,1.2l-.6,8,3.3.4a.7.7,0,0,1,.5.4,1.5,1.5,0,0,1,.2.9,1.7,1.7,0,0,1-.3,1,.5.5,0,0,1-.6.4h-3.3c-.2,3.9-.4,7.7-.7,11.6,0,.3-.2.5-.7.6a4.7,4.7,0,0,1-1.7.2,4.8,4.8,0,0,1-1.8-.3c-.4-.1-.7-.4-.7-.6Z" transform="translate(-5.9 -11.7)"/><path class="cls-5" d="M564.1,50.8a.9.9,0,0,1-.7-.3,1.7,1.7,0,0,1-.3-1l.3-.9a.9.9,0,0,1,.8-.4l20.2.2a.8.8,0,0,1,.7.4,1.2,1.2,0,0,1,.2,1,1.9,1.9,0,0,1-.3,1,.8.8,0,0,1-.8.4Zm.9-19.9a.7.7,0,0,1-.6-.4,1.6,1.6,0,0,1-.2-1,2.4,2.4,0,0,1,.2-.9.8.8,0,0,1,.7-.4l19.3.5c.3,0,.4.1.6.4a2.4,2.4,0,0,1,.2.9,1.5,1.5,0,0,1-.3,1c-.2.3-.4.5-.7.5l-6.5-.2c0,.5-.1,1-.1,1.5a7,7,0,0,0,1.8,5.3,12,12,0,0,0,5.1,3.2c.4.1.5.4.5.9a1.9,1.9,0,0,1-.4,1.2,1,1,0,0,1-1.1.4,18.9,18.9,0,0,1-3.5-1.3,11.5,11.5,0,0,1-3.3-2.1,6.9,6.9,0,0,1-2.1-2.8,6.6,6.6,0,0,1-3.5,3.5,24.6,24.6,0,0,1-6.1,2.2h-.2a1.6,1.6,0,0,1-.9-.5,1.9,1.9,0,0,1-.3-1,.8.8,0,0,1,.6-.9c5.1-1.5,7.7-4.3,7.7-8.4V31.1Z" transform="translate(-5.9 -11.7)"/><path class="cls-5" d="M587.5,48a1.5,1.5,0,0,1,.1-.7.5.5,0,0,1,.4-.3c3.1-.5,5.5-1.6,7-3.4a11.7,11.7,0,0,0,2.6-7.3c0-1.5.1-3.1.1-4.6l-8.4-.5a.7.7,0,0,1-.5-.4,1.6,1.6,0,0,1-.2-1,2.9,2.9,0,0,1,.2-.9l.6-.3,11.3.6c1.7.1,2.6.9,2.5,2.6s-.1,3-.1,4.5A12.8,12.8,0,0,1,596,47.5a19.9,19.9,0,0,1-7.6,2.2c-.3,0-.5-.2-.7-.5A5,5,0,0,1,587.5,48Zm18.6-18.2c0-.5.3-.9,1-1.1a5.7,5.7,0,0,1,4.2.2c.6.3.9.7.8,1.2l-.6,8,3.2.4a1,1,0,0,1,.6.5,2.2,2.2,0,0,1,.1.9,1.4,1.4,0,0,1-.3.9.6.6,0,0,1-.6.5h-3.3l-.9,11.6c0,.3-.2.5-.7.6l-1.8.2-1.7-.4c-.5-.1-.7-.4-.7-.6C605.6,45.1,605.9,37.4,606.1,29.8Z" transform="translate(-5.9 -11.7)"/><path class="cls-5" d="M625.6,53a.7.7,0,0,1-.7-.4.9.9,0,0,1-.2-.9,1.4,1.4,0,0,1,.3-.9,1.1,1.1,0,0,1,.8-.5l7.2.3c.1-1.9.1-3.8.2-5.7l-4.5-.2a2.5,2.5,0,0,1-1.9-.6,2.5,2.5,0,0,1-.5-1.7c0-3.6.1-7.2.1-10.8a1.4,1.4,0,0,1,.8-1.2,6,6,0,0,1,2-.3,4.2,4.2,0,0,1,2,.5,1.6,1.6,0,0,1,.8,1.3c-.1,1.1-.1,2.3-.2,3.4l9.8.4c0-1.1.1-2.2.1-3.4a1.2,1.2,0,0,1,.8-1.1,3.6,3.6,0,0,1,2.1-.3,3.8,3.8,0,0,1,1.9.5,1.2,1.2,0,0,1,.7,1.3l-.9,10.7a1.9,1.9,0,0,1-.7,1.6,2.6,2.6,0,0,1-1.9.4l-4.8-.2c-.1,1.8-.3,3.7-.4,5.6l7.5.2a1,1,0,0,1,.7.4,3,3,0,0,1,.2,1,3,3,0,0,1-.4,1,.9.9,0,0,1-.8.4Zm15.7-10.4c.1-1.4.1-2.8.2-4.3l-9.9-.3c0,1.3-.1,2.7-.2,4.1Z" transform="translate(-5.9 -11.7)"/><path class="cls-5" d="M652.2,52.2h-.5a2.2,2.2,0,0,1-1.7-.7,2.9,2.9,0,0,1-.5-1.9l.6-16.9c0-.5.4-.8,1-1.1a7.8,7.8,0,0,1,2.2-.3,3.5,3.5,0,0,1,1.8.5,1.3,1.3,0,0,1,.7,1.1c-.3,5.4-.5,10.7-.8,16.1h6.7a.5.5,0,0,1,.5.4,2.2,2.2,0,0,1,.1.9,1.7,1.7,0,0,1-.3,1c-.2.4-.4.5-.7.5ZM671,33a1.2,1.2,0,0,1,.8-1.1,5,5,0,0,1,1.9-.3,3.2,3.2,0,0,1,2,.6c.6.3.9.7.8,1.2-.7,7.6-1.5,15.2-2.2,22.7-.1.3-.3.5-.8.7h-1.6a4.1,4.1,0,0,1-1.6-.3c-.4-.2-.7-.4-.6-.7l.7-12.3h-2.5c-.3,4.1-.7,8.1-1,12.2,0,.3-.2.5-.7.6a3.4,3.4,0,0,1-1.5.2l-1.5-.4q-.6-.3-.6-.6c.4-7.7.8-15.3,1.1-22.9a1.6,1.6,0,0,1,.8-1.2,4.2,4.2,0,0,1,1.8-.3,5.3,5.3,0,0,1,1.9.6,1.1,1.1,0,0,1,.6,1.3l-.6,7.3,2.3.2C670.7,38,670.8,35.5,671,33Z" transform="translate(-5.9 -11.7)"/><path class="cls-5" d="M688.3,56.6c-.3-.1-.6-.2-.7-.5a.9.9,0,0,1-.2-.9,1.2,1.2,0,0,1,.3-.9.9.9,0,0,1,.8-.4L708.7,55a.8.8,0,0,1,.7.4,2.4,2.4,0,0,1,.2.9,2.3,2.3,0,0,1-.4,1,.7.7,0,0,1-.8.4Zm3.4-7.9a3.3,3.3,0,0,1-2.1-.7,2.5,2.5,0,0,1-.6-1.9c.2-3.3.3-6.5.4-9.8a2,2,0,0,1,.9-1.8,3.6,3.6,0,0,1,2.4-.5l16.5,1.2c.2,0,.4.2.5.5a1.6,1.6,0,0,1,.2,1,2.9,2.9,0,0,1-.3,1,.5.5,0,0,1-.6.4l-13.9-1-.6,8.5,13.8,1.2c.3,0,.4.1.5.4a1.6,1.6,0,0,1,.1,1,1.7,1.7,0,0,1-.3,1c-.1.3-.3.5-.6.4Z" transform="translate(-5.9 -11.7)"/><path class="cls-5" d="M715.6,56.3a2.3,2.3,0,0,1-1.8-.6,2.1,2.1,0,0,1-.5-1.8c0-2.6.1-5.2.2-7.8s.8-1.9,2.3-1.8l7.1.5c.2-2,.3-3.9.5-5.9l-8.5-.6a.6.6,0,0,1-.6-.5,2.5,2.5,0,0,1-.2-1.2,1.2,1.2,0,0,1,.3-.9.5.5,0,0,1,.5-.4l11.7,1.1c1.9.2,2.7,1.1,2.5,2.7s-.5,4.6-.8,6.9c-.1.7-.3,1.2-.7,1.4a2.9,2.9,0,0,1-1.7.4l-7.1-.6c-.1,2.1-.2,4.3-.4,6.4h10.5c.2-.1.4.1.5.4a1.3,1.3,0,0,1,.2.9,4.6,4.6,0,0,1-.3.9.7.7,0,0,1-.6.4Zm16.8-19a1.3,1.3,0,0,1,1-1.1,5.2,5.2,0,0,1,2.2-.2,3.4,3.4,0,0,1,2,.6,1.2,1.2,0,0,1,.8,1.3c-.9,7.5-1.8,15.1-2.8,22.7,0,.3-.2.5-.7.6h-1.8l-1.7-.4c-.4-.2-.7-.5-.7-.7C731.3,52.6,731.8,44.9,732.4,37.3Z" transform="translate(-5.9 -11.7)"/><path class="cls-5" d="M741.7,53a1.1,1.1,0,0,1-.8-.5,2,2,0,0,1-.2-.9,1.9,1.9,0,0,1,.4-.9.9.9,0,0,1,.8-.4l20.2,1.4a.8.8,0,0,1,.7.5,2,2,0,0,1,.2.9,3,3,0,0,1-.4,1,.9.9,0,0,1-.8.4C755.1,54,748.4,53.4,741.7,53Zm3.5-5.4a3.1,3.1,0,0,1-2.1-.7,2.7,2.7,0,0,1-.6-1.9c.2-2.4.3-4.8.4-7.2,0-.5.3-.9,1-1.1a5.2,5.2,0,0,1,2.2-.2,3.5,3.5,0,0,1,1.8.5,1.3,1.3,0,0,1,.7,1.2l-.6,6.6,13.6,1a.8.8,0,0,1,.5.5,1.4,1.4,0,0,1,0,.9,1.7,1.7,0,0,1-.3,1,.6.6,0,0,1-.6.4Zm-.5,16.3a2.9,2.9,0,0,1-2.1-.7,2.5,2.5,0,0,1-.6-1.9c.1-1.7.1-3.4.2-5a1.1,1.1,0,0,1,.9-1.1,6.9,6.9,0,0,1,2-.3,5.9,5.9,0,0,1,2,.6,1.2,1.2,0,0,1,.7,1.2l-.3,4.1,12.7,1c.2,0,.4.2.5.5a2.8,2.8,0,0,1,.1,1,3.6,3.6,0,0,1-.4,1.1.7.7,0,0,1-.6.5Z" transform="translate(-5.9 -11.7)"/><path class="cls-5" d="M773.9,61.7a1.9,1.9,0,0,1-1.1-.8,2,2,0,0,1-.4-1.3,1.6,1.6,0,0,1,.4-.7,9.6,9.6,0,0,0,3.6-3.9,21,21,0,0,0,1.7-7,4.9,4.9,0,0,1,.1-1.2l.3-4.6c0-.5.3-.9,1-1.1a4.7,4.7,0,0,1,2.1-.2,3.4,3.4,0,0,1,2,.6,1.2,1.2,0,0,1,.7,1.2l-.7,4.7c0,.4-.1,1-.2,1.8a16.4,16.4,0,0,0,.3,6.5,9,9,0,0,0,2.6,4,.8.8,0,0,1,.2.6,3.1,3.1,0,0,1-.7,1.4,2.2,2.2,0,0,1-1.3.6h-.3a8.8,8.8,0,0,1-2.6-2.8,8.4,8.4,0,0,1-1.5-3.8,10.9,10.9,0,0,1-5.6,6Zm22-18.6a1.1,1.1,0,0,1,.8-1.1,5.4,5.4,0,0,1,1.9-.3,4.8,4.8,0,0,1,2.1.7c.5.4.8.8.7,1.3-1.1,7.6-2.1,15.1-3.2,22.7,0,.3-.3.5-.8.6h-1.6a4.2,4.2,0,0,1-1.6-.4c-.4-.2-.6-.4-.6-.7l1.2-12.2-2.2-.2-1.5,12.1c0,.3-.3.5-.7.6a2.4,2.4,0,0,1-1.5.1,3.3,3.3,0,0,1-1.5-.4c-.4-.2-.6-.4-.6-.7l2.1-22.8a1.3,1.3,0,0,1,.8-1.2,3.2,3.2,0,0,1,1.8-.2,5.3,5.3,0,0,1,1.9.6,1.8,1.8,0,0,1,.6,1.3c-.3,2.5-.7,5-1,7.4l2.1.2C795.4,48.1,795.6,45.6,795.9,43.1Z" transform="translate(-5.9 -11.7)"/><path class="cls-5" d="M803.6,66.4a1,1,0,0,1-.8-.4,1.4,1.4,0,0,1-.1-.9,1.3,1.3,0,0,1,.4-1,1,1,0,0,1,.8-.4l7.2.7c.1-1.6.3-3.3.4-4.9l-4.3-.5a3.8,3.8,0,0,1-1.8-.6,2.2,2.2,0,0,1-.5-1.7l.3-4.8a1.8,1.8,0,0,1,2.3-1.8l12.6,1.3.3-3.5-14-1.2a.7.7,0,0,1-.6-.6,2,2,0,0,1-.1-1.1,3,3,0,0,1,.2-1,.9.9,0,0,1,.6-.3l17.2,1.9a2.9,2.9,0,0,1,2,.9,2.4,2.4,0,0,1,.4,1.9c-.3,1.4-.5,2.8-.7,4.1a2.7,2.7,0,0,1-.8,1.6,3,3,0,0,1-1.7.2L810.4,53l-.3,3.6L824.2,58a.8.8,0,0,1,.5.5,3.1,3.1,0,0,1,.1,1l-.3,1c-.2.3-.4.4-.7.3l-6.6-.7c-.2,1.6-.4,3.2-.7,4.8l7.5.7c.3,0,.5.2.7.5a1.3,1.3,0,0,1,.1.9,1.8,1.8,0,0,1-.4,1,.9.9,0,0,1-.8.4Z" transform="translate(-5.9 -11.7)"/><path class="cls-5" d="M837,67.5l.6-5-9.1-1a1,1,0,0,1-.7-.4,1.6,1.6,0,0,1-.1-1,1.2,1.2,0,0,1,.4-.9.8.8,0,0,1,.8-.4L849,60.9a.7.7,0,0,1,.7.4,1.6,1.6,0,0,1,.2,1,1.9,1.9,0,0,1-.5,1,.6.6,0,0,1-.8.3l-5.5-.6-.6,5.2c0,.3-.4.5-1,.6a6.7,6.7,0,0,1-2,0,4.8,4.8,0,0,1-1.8-.4C837.2,68.2,836.9,67.9,837,67.5ZM829.7,51a4.1,4.1,0,0,1,1.6-3,8.3,8.3,0,0,1,3.8-1.6,19.2,19.2,0,0,1,5.4-.1,18,18,0,0,1,5.2,1.3,8,8,0,0,1,3.3,2.5,4.2,4.2,0,0,1,1,3.2,4.2,4.2,0,0,1-1.7,2.9,7.9,7.9,0,0,1-3.8,1.7,19.2,19.2,0,0,1-5.4.1,18.8,18.8,0,0,1-5.2-1.3,8.7,8.7,0,0,1-3.3-2.5A4.3,4.3,0,0,1,829.7,51Zm1.5,21.6a3.4,3.4,0,0,1-2-.8,2.3,2.3,0,0,1-.5-1.9l.3-4.8a1.1,1.1,0,0,1,.9-1,4.6,4.6,0,0,1,2-.2,5.9,5.9,0,0,1,2,.6,1.3,1.3,0,0,1,.7,1.2c-.1,1.3-.3,2.6-.4,3.8l12.6,1.4c.3,0,.4.2.5.5a2.8,2.8,0,0,1,.1,1,3.6,3.6,0,0,1-.4,1.1c-.2.3-.4.5-.7.5Zm13.5-19.9a2.6,2.6,0,0,0-1.1-2.3,7.6,7.6,0,0,0-3.4-1.2,7.2,7.2,0,0,0-3.7.4,2.4,2.4,0,0,0-.5,4.3,8,8,0,0,0,3.5,1.2,6.9,6.9,0,0,0,3.6-.4A2.5,2.5,0,0,0,844.7,52.7Z" transform="translate(-5.9 -11.7)"/><path class="cls-5" d="M860.5,72.9a1,1,0,0,1-.8-.4,3.1,3.1,0,0,1-.1-1,1.8,1.8,0,0,1,.4-.9.8.8,0,0,1,.8-.3l7.2.8c.2-1.9.4-3.8.7-5.7l-4.6-.6a3,3,0,0,1-1.9-.7,2.7,2.7,0,0,1-.4-1.7c.3-3.2.7-6.4,1-9.7.1-1.6,1.1-2.3,2.9-2.1l15.5,1.9a3.4,3.4,0,0,1,1.9.9,2.3,2.3,0,0,1,.4,2c-.6,3.1-1.2,6.3-1.9,9.5a2,2,0,0,1-.8,1.5,3,3,0,0,1-2,.3l-4.5-.6c-.3,1.9-.6,3.7-.8,5.6l7.4.8c.3,0,.5.2.7.5a1.3,1.3,0,0,1,.1.9,1.8,1.8,0,0,1-.4,1,.9.9,0,0,1-.8.4Zm17.6-18.1-10-.9c-.4,2.7-.8,5.5-1.1,8.3l9.7,1.3C877.2,60.6,877.7,57.7,878.1,54.8Z" transform="translate(-5.9 -11.7)"/><path class="cls-5" d="M886.8,57.6c-.2,0-.4-.2-.5-.5a1.3,1.3,0,0,1-.1-.9,2.9,2.9,0,0,1,.3-1,1.1,1.1,0,0,1,.7-.3l4.9.6a11,11,0,0,1,.2-1.8,1.4,1.4,0,0,1,1.1-1,7.2,7.2,0,0,1,2.1-.1,3.6,3.6,0,0,1,1.9.7,1.3,1.3,0,0,1,.7,1.2l-.3,1.7,4.9.6c.3,0,.4.2.5.5a1.4,1.4,0,0,1,.1.9,1.5,1.5,0,0,1-.4,1,.8.8,0,0,1-.7.4l-2.1-.3a5.3,5.3,0,0,1,1.1,1.5,5.5,5.5,0,0,1,.6,1.8l3,.2.9-6.9a1.3,1.3,0,0,1,1-1.1,5.3,5.3,0,0,1,2.2-.1,4.8,4.8,0,0,1,2.1.7c.5.4.8.9.6,1.4-.9,4.7-1.9,9.4-2.8,14.2a1.3,1.3,0,0,1-.9.5h-1.7l-1.7-.4c-.4-.3-.6-.5-.6-.8s.3-2.8.5-4.2l-3.1-.5-.9,1.4a7.5,7.5,0,0,1-3,1.8,11,11,0,0,1-4.1.2,9.5,9.5,0,0,1-3.8-1.3,6.4,6.4,0,0,1-2.4-2.5,6.3,6.3,0,0,1-.6-3.3,5,5,0,0,1,1.4-2.9,5.3,5.3,0,0,1,1.4-1.1Zm4.9,22.9a3,3,0,0,1-1.9-.7,2.3,2.3,0,0,1-.3-1.7c.1-1.8.3-3.6.4-5.3s1.1-2.4,3-2.2l13,1.6a2.6,2.6,0,0,1,1.9.9,2.6,2.6,0,0,1,.4,2L907,80.4a2,2,0,0,1-2.8,1.8Zm5-17.3a4,4,0,0,0-.4-2.5,2.1,2.1,0,0,0-1.7-1.2,2.3,2.3,0,0,0-2,.7,4.5,4.5,0,0,0-1,2.3,4.4,4.4,0,0,0,.4,2.6,2.5,2.5,0,0,0,1.7,1.1,2.4,2.4,0,0,0,2-.6A5.3,5.3,0,0,0,896.7,63.2Zm6,11.3-7.5-.8-.3,4.4,6.9,1.1Z" transform="translate(-5.9 -11.7)"/><path class="cls-5" d="M916.5,70.5a2.3,2.3,0,0,1-2.5-2.8c.4-2.9.7-5.9,1-8.8a2.5,2.5,0,0,1,1.1-1.8,4.4,4.4,0,0,1,2.4-.3l11,1.5c.2,0,.4.2.5.5a3.5,3.5,0,0,1-.3,2q-.3.5-.6.3l-8.5-1c-.3,2.5-.7,5-1,7.5l9.2.8c.2.1.4.2.4.5a2.2,2.2,0,0,1,.1.9,3,3,0,0,1-.4,1,.8.8,0,0,1-.7.4Zm2.6,13.9a3,3,0,0,1-1.8-.8,1.9,1.9,0,0,1-.4-1.7c.2-2.2.4-4.4.7-6.6s1.1-2.3,3-2.1l13,1.7a3.1,3.1,0,0,1,1.9,1,2,2,0,0,1,.3,1.9c-.4,2.2-.9,4.4-1.4,6.6a1.7,1.7,0,0,1-.9,1.5,2.6,2.6,0,0,1-1.9.3Zm11.3-7.2-7.5-.9-.6,5.6,7,1.2C929.6,81.1,930,79.1,930.4,77.2ZM933,59.8c0-.6.4-.9,1-1.1a5.8,5.8,0,0,1,2.3-.1,4.4,4.4,0,0,1,2,.8,1.2,1.2,0,0,1,.7,1.3l-.9,4.2,3.1.8a.7.7,0,0,1,.5.4,3.1,3.1,0,0,1,.1,1,2.5,2.5,0,0,1-.4.9.9.9,0,0,1-.7.4l-3.3-.3-1.2,5.5q-.2.5-.9.6h-1.7a6.9,6.9,0,0,1-1.7-.5.9.9,0,0,1-.6-.8C931.8,68.5,932.4,64.1,933,59.8Z" transform="translate(-5.9 -11.7)"/><path class="cls-5" d="M950.8,86.4a3,3,0,0,1,1.3-2,3.1,3.1,0,0,1,2.3-.6,3.4,3.4,0,0,1,2,1.3,3.1,3.1,0,0,1,.6,2.3,3.4,3.4,0,0,1-1.3,2,3.1,3.1,0,0,1-2.3.6,3,3,0,0,1-2-1.3A3.1,3.1,0,0,1,950.8,86.4Zm1.7-6.9c.7-5.6,1.5-11.2,2.2-16.9a1.3,1.3,0,0,1,.9-1,5.3,5.3,0,0,1,4.2.7,1.1,1.1,0,0,1,.5,1.2c-.9,5.6-1.9,11.2-2.9,16.8a1.6,1.6,0,0,1-.8,1,3.7,3.7,0,0,1-1.9.2,5.4,5.4,0,0,1-1.7-.7A1.4,1.4,0,0,1,952.5,79.5Z" transform="translate(-5.9 -11.7)"/></g></g></svg>